<svg width="35" height="29" viewBox="0 0 35 29" fill="none" xmlns="http://www.w3.org/2000/svg">
<path fill-rule="evenodd" clip-rule="evenodd" d="M30.9971 0.919922H3.49881C1.6083 0.919922 0.0615234 2.4667 0.0615234 4.3572V24.9809C0.0615234 26.8714 1.6083 28.4182 3.49881 28.4182H30.9971C32.8876 28.4182 34.4344 26.8714 34.4344 24.9809V4.3572C34.4344 2.4667 32.8876 0.919922 30.9971 0.919922ZM30.31 8.22427L19.0701 15.2535C17.953 15.9582 16.5437 15.9582 15.4266 15.2535L4.18668 8.22427C3.75702 7.94928 3.49923 7.48525 3.49923 6.98685C3.49923 5.83536 4.75383 5.1479 5.73346 5.74942L17.2484 12.9505L28.7633 5.74942C29.7429 5.1479 30.9975 5.83536 30.9975 6.98685C30.9975 7.48525 30.7397 7.94928 30.31 8.22427Z" fill="#8895A7"/>
</svg>
