<svg width="24" height="39" viewBox="0 0 24 39" fill="none" xmlns="http://www.w3.org/2000/svg">
<path fill-rule="evenodd" clip-rule="evenodd" d="M18.9815 0.392578H5.2324C2.86067 0.392578 0.935791 2.31746 0.935791 4.68918V33.9061C0.935791 36.2778 2.86067 38.2027 5.2324 38.2027H18.9815C21.3533 38.2027 23.2781 36.2778 23.2781 33.9061V4.68918C23.2781 2.31746 21.3533 0.392578 18.9815 0.392578ZM12.1074 36.4841C10.6809 36.4841 9.52942 35.3326 9.52942 33.9061C9.52942 32.4796 10.6809 31.3281 12.1074 31.3281C13.5339 31.3281 14.6853 32.4796 14.6853 33.9061C14.6853 35.3326 13.5339 36.4841 12.1074 36.4841ZM19.8413 29.6095H4.37349V5.5485H19.8413V29.6095Z" fill="#8895A7"/>
</svg>
