<svg width="35" height="36" viewBox="0 0 35 36" fill="none" xmlns="http://www.w3.org/2000/svg">
<path fill-rule="evenodd" clip-rule="evenodd" d="M17.1483 0.896484C7.68428 0.896484 0.0032959 8.57747 0.0032959 18.0415C0.0032959 27.5056 7.68428 35.1866 17.1483 35.1866C26.6124 35.1866 34.2934 27.5056 34.2934 18.0415C34.2934 8.57747 26.6124 0.896484 17.1483 0.896484ZM17.1479 6.04C19.994 6.04 22.2914 8.33744 22.2914 11.1835C22.2914 14.0296 19.994 16.327 17.1479 16.327C14.3019 16.327 12.0044 14.0296 12.0044 11.1835C12.0044 8.33744 14.3019 6.04 17.1479 6.04ZM17.1479 30.3858C12.8617 30.3858 9.07261 28.1912 6.8609 24.8651C6.91233 21.4532 13.7189 19.5844 17.1479 19.5844C20.5598 19.5844 27.3835 21.4532 27.435 24.8651C25.2232 28.1912 21.4342 30.3858 17.1479 30.3858Z" fill="#8895A7"/>
</svg>
