<svg width="64" height="37" viewBox="0 0 64 37" fill="none" xmlns="http://www.w3.org/2000/svg">
<rect y="0.231934" width="64" height="36" rx="18" fill="url(#paint0_linear_57_1295)" fill-opacity="0.890196"/>
<path fill-rule="evenodd" clip-rule="evenodd" d="M25 19.2321H36.17L31.29 24.1121C30.9 24.5021 30.9 25.1421 31.29 25.5321C31.68 25.9221 32.31 25.9221 32.7 25.5321L39.29 18.9421C39.68 18.5521 39.68 17.9221 39.29 17.5321L32.71 10.9321C32.32 10.5421 31.69 10.5421 31.3 10.9321C30.91 11.3221 30.91 11.9521 31.3 12.3421L36.17 17.2321H25C24.45 17.2321 24 17.6821 24 18.2321C24 18.7821 24.45 19.2321 25 19.2321Z" fill="white"/>
<defs>
<linearGradient id="paint0_linear_57_1295" x1="2.39269" y1="30.0465" x2="78.8728" y2="-5.64969" gradientUnits="userSpaceOnUse">
<stop stop-color="#5A8FAF"/>
<stop offset="0.560784" stop-color="#47AD71"/>
<stop offset="1" stop-color="#33CC33"/>
</linearGradient>
</defs>
</svg>
