<svg width="146" height="30" viewBox="0 0 146 30" fill="none" xmlns="http://www.w3.org/2000/svg">
<path fill-rule="evenodd" clip-rule="evenodd" d="M14.7106 21.7353L20.9712 25.5135C21.4313 25.792 22.0005 25.3803 21.8794 24.8596L20.2204 17.7393L25.7423 12.9561C26.1419 12.6049 25.936 11.9389 25.3911 11.8904L18.1134 11.2729L15.2676 4.56426C15.0618 4.06777 14.3594 4.06777 14.1536 4.56426L11.3079 11.2729L4.03015 11.8904C3.49734 11.9389 3.27937 12.6049 3.69109 12.9561L9.21296 17.7393L7.55398 24.8596C7.43288 25.3803 8.00202 25.792 8.46218 25.5135L14.7106 21.7353Z" fill="#F1AA0B"/>
<path fill-rule="evenodd" clip-rule="evenodd" d="M43.7731 21.7353L50.0337 25.5135C50.4938 25.792 51.063 25.3803 50.9419 24.8596L49.2829 17.7393L54.8048 12.9561C55.2044 12.6049 54.9985 11.9389 54.4536 11.8904L47.1759 11.2729L44.3301 4.56426C44.1243 4.06777 43.4219 4.06777 43.2161 4.56426L40.3704 11.2729L33.0926 11.8904C32.5598 11.9389 32.3419 12.6049 32.7536 12.9561L38.2755 17.7393L36.6165 24.8596C36.4954 25.3803 37.0645 25.792 37.5247 25.5135L43.7731 21.7353Z" fill="#F1AA0B"/>
<path fill-rule="evenodd" clip-rule="evenodd" d="M72.8356 21.7353L79.0962 25.5135C79.5563 25.792 80.1255 25.3803 80.0044 24.8596L78.3454 17.7393L83.8673 12.9561C84.2669 12.6049 84.061 11.9389 83.5161 11.8904L76.2384 11.2729L73.3926 4.56426C73.1868 4.06777 72.4844 4.06777 72.2786 4.56426L69.4329 11.2729L62.1551 11.8904C61.6223 11.9389 61.4044 12.6049 61.8161 12.9561L67.338 17.7393L65.679 24.8596C65.5579 25.3803 66.127 25.792 66.5872 25.5135L72.8356 21.7353Z" fill="#F1AA0B"/>
<path fill-rule="evenodd" clip-rule="evenodd" d="M101.898 21.7353L108.159 25.5135C108.619 25.792 109.188 25.3803 109.067 24.8596L107.408 17.7393L112.93 12.9561C113.329 12.6049 113.124 11.9389 112.579 11.8904L105.301 11.2729L102.455 4.56426C102.249 4.06777 101.547 4.06777 101.341 4.56426L98.4954 11.2729L91.2176 11.8904C90.6848 11.9389 90.4669 12.6049 90.8786 12.9561L96.4005 17.7393L94.7415 24.8596C94.6204 25.3803 95.1895 25.792 95.6497 25.5135L101.898 21.7353Z" fill="#F1AA0B"/>
<path fill-rule="evenodd" clip-rule="evenodd" d="M130.961 21.7353L137.221 25.5135C137.681 25.792 138.25 25.3803 138.129 24.8596L136.47 17.7393L141.992 12.9561C142.392 12.6049 142.186 11.9389 141.641 11.8904L134.363 11.2729L131.518 4.56426C131.312 4.06777 130.609 4.06777 130.404 4.56426L127.558 11.2729L120.28 11.8904C119.747 11.9389 119.529 12.6049 119.941 12.9561L125.463 17.7393L123.804 24.8596C123.683 25.3803 124.252 25.792 124.712 25.5135L130.961 21.7353Z" fill="#F1AA0B"/>
</svg>
