<svg width="84" height="84" viewBox="0 0 84 84" fill="none" xmlns="http://www.w3.org/2000/svg">
        <path d="M0 42C0 18.804 18.804 0 42 0C65.196 0 84 18.804 84 42C84 65.196 65.196 84 42 84H0V42Z" fill="#47AD71" fill-opacity="0.1"/>
        <path fill-rule="evenodd" clip-rule="evenodd" d="M23.1191 22.1198C23.0532 22.1858 22.9993 22.282 22.9993 22.3338C22.9993 22.3855 23.4264 24.1166 23.9483 26.1806C24.9627 30.192 25.1503 30.7372 25.8905 31.8272C26.2468 32.3519 27.5455 33.7429 27.6791 33.7429C27.7267 33.7429 29.3547 32.1536 31.2969 30.2111L34.8281 26.6793L34.0642 25.9462C32.9879 24.9131 32.0273 24.3005 30.883 23.9172C30.3968 23.7543 23.4882 22 23.3332 22C23.2813 22 23.185 22.0539 23.1191 22.1198ZM53.3697 22.1057C53.1929 22.1636 52.9012 22.2986 52.7215 22.4056C52.5409 22.5131 45.9104 29.0917 37.899 37.1122C21.6331 53.3963 23.0347 51.8867 23.0447 53.1111C23.0536 54.2076 22.9847 54.1167 26.4074 57.5457C29.8744 61.0191 29.842 60.9943 30.9309 60.9999C31.8948 61.0049 32.3056 60.7789 33.4819 59.5969L34.3948 58.6795L33.2013 57.4776C32.5449 56.8165 31.9711 56.179 31.9262 56.061C31.5609 55.1002 32.4611 54.2 33.4219 54.5653C33.5399 54.6102 34.1774 55.1839 34.8384 55.8404L36.0403 57.0338L36.9161 56.1605L37.7918 55.2874L35.7008 53.1889C33.8903 51.3719 33.6027 51.0517 33.557 50.8018C33.4444 50.1866 33.7023 49.6929 34.2443 49.4859C34.9242 49.2263 34.9256 49.2273 37.2783 51.5716L39.3951 53.6808L40.2897 52.7861L41.1842 51.8915L39.9407 50.6462C38.9468 49.6509 38.6845 49.3448 38.6341 49.121C38.4479 48.2958 39.1428 47.5772 39.9772 47.7318C40.2254 47.7778 40.4641 47.9783 41.5307 49.0372L42.7909 50.2882L43.6649 49.4117L44.5389 48.5353L42.5485 46.5339C41.4538 45.4332 40.5019 44.4478 40.4334 44.3441C40.2597 44.0817 40.2705 43.4483 40.4534 43.1709C40.6778 42.8306 40.9865 42.6656 41.4003 42.665C41.6022 42.6647 41.8424 42.7024 41.934 42.7488C42.0256 42.7951 43.0185 43.7471 44.1404 44.8643L46.1802 46.8955L47.0363 46.0395L47.8923 45.1835L46.6984 43.9812C46.0418 43.3199 45.4678 42.6823 45.4229 42.5642C45.0577 41.6034 45.9578 40.7033 46.9186 41.0685C47.0366 41.1134 47.6741 41.6872 48.3352 42.3436L49.5371 43.5371L50.4134 42.6632L51.2898 41.7893L49.2342 39.7297C48.1036 38.5968 47.1426 37.5733 47.0987 37.4553C46.8812 36.8707 47.1504 36.2377 47.7161 36.0032C48.4093 35.716 48.4045 35.7127 50.775 38.0748L52.8918 40.1841L53.7864 39.2894L54.681 38.3948L53.4375 37.1495C52.4435 36.1542 52.1813 35.8481 52.1308 35.6242C51.9447 34.7991 52.6395 34.0804 53.474 34.2351C53.7222 34.281 53.9609 34.4816 55.0275 35.5404L56.2876 36.7914L57.1616 35.915L58.0356 35.0385L56.0452 33.0372C54.9505 31.9365 53.9987 30.9511 53.9301 30.8474C53.7564 30.5849 53.7673 29.9516 53.9501 29.6742C54.1745 29.3338 54.4833 29.1688 54.897 29.1683C55.0989 29.168 55.3391 29.2057 55.4308 29.252C55.5224 29.2984 56.5151 30.2502 57.6368 31.3672L59.6762 33.398L60.5948 32.4839C61.7783 31.3062 62.0041 30.8957 61.9992 29.9317C61.9935 28.8427 62.0184 28.8752 58.5449 25.4081C56.0537 22.9214 55.4539 22.361 55.1398 22.2265C54.6574 22.0201 53.8077 21.962 53.3697 22.1057ZM32.8545 31.8561L29.3279 35.3833L31.044 37.0981L32.7602 38.813L36.3247 35.2424L39.8892 31.6719L38.1736 30.0005C37.2299 29.0812 36.4406 28.3291 36.4194 28.329C36.3983 28.329 34.794 29.9162 32.8545 31.8561ZM48.7728 47.8115L45.2278 51.3571L47.3238 53.4542C48.4766 54.6075 49.4545 55.5512 49.4969 55.5512C49.5972 55.5512 56.5505 48.5973 56.5505 48.497C56.5505 48.422 52.4302 44.2658 52.3557 44.2658C52.3349 44.2658 50.7226 45.8613 48.7728 47.8115ZM54.6439 53.6857L51.0984 57.2341L52.5091 58.6274C54.0295 60.129 54.4509 60.4386 55.4456 60.7846C55.9875 60.9732 56.1601 60.9963 57.008 60.9948C57.8375 60.9934 58.0424 60.9662 58.5876 60.786C60.0862 60.2906 61.2425 59.1276 61.7839 57.5711C61.9718 57.0308 61.9958 56.854 61.9958 56.0087C61.9958 55.1635 61.9718 54.9866 61.7839 54.4463C61.4372 53.4496 61.1292 53.0288 59.6487 51.5289C58.8932 50.7635 58.2558 50.1373 58.2322 50.1373C58.2086 50.1373 56.5939 51.7341 54.6439 53.6857Z" fill="#47AD71"/>
        </svg>