<svg width="353" height="173" viewBox="0 0 353 173" fill="none" xmlns="http://www.w3.org/2000/svg">
<g filter="url(#filter0_d_50_1363)">
<rect x="60" y="35.4373" width="260" height="80" rx="40" fill="url(#paint0_linear_50_1363)" fill-opacity="0.890196" shape-rendering="crispEdges"/>
<path d="M132.342 78.2953C132.738 78.2953 133.062 78.2653 133.314 78.2053C133.578 78.1333 133.788 78.0433 133.944 77.9353C134.1 77.8153 134.208 77.6773 134.268 77.5213C134.328 77.3653 134.358 77.1913 134.358 76.9993C134.358 76.5913 134.166 76.2553 133.782 75.9913C133.398 75.7153 132.738 75.4213 131.802 75.1093C131.394 74.9653 130.986 74.8033 130.578 74.6233C130.17 74.4313 129.804 74.1973 129.48 73.9213C129.156 73.6333 128.892 73.2913 128.688 72.8953C128.484 72.4873 128.382 71.9953 128.382 71.4193C128.382 70.8433 128.49 70.3273 128.706 69.8713C128.922 69.4033 129.228 69.0073 129.624 68.6833C130.02 68.3593 130.5 68.1133 131.064 67.9453C131.628 67.7653 132.264 67.6753 132.972 67.6753C133.812 67.6753 134.538 67.7653 135.15 67.9453C135.762 68.1253 136.266 68.3233 136.662 68.5393L135.852 70.7533C135.504 70.5733 135.114 70.4173 134.682 70.2853C134.262 70.1413 133.752 70.0693 133.152 70.0693C132.48 70.0693 131.994 70.1653 131.694 70.3573C131.406 70.5373 131.262 70.8193 131.262 71.2033C131.262 71.4313 131.316 71.6233 131.424 71.7793C131.532 71.9353 131.682 72.0793 131.874 72.2113C132.078 72.3313 132.306 72.4453 132.558 72.5533C132.822 72.6493 133.11 72.7513 133.422 72.8593C134.07 73.0993 134.634 73.3393 135.114 73.5793C135.594 73.8073 135.99 74.0773 136.302 74.3893C136.626 74.7013 136.866 75.0673 137.022 75.4873C137.178 75.9073 137.256 76.4173 137.256 77.0173C137.256 78.1813 136.848 79.0873 136.032 79.7353C135.216 80.3713 133.986 80.6893 132.342 80.6893C131.79 80.6893 131.292 80.6533 130.848 80.5813C130.404 80.5213 130.008 80.4433 129.66 80.3473C129.324 80.2513 129.03 80.1493 128.778 80.0413C128.538 79.9333 128.334 79.8313 128.166 79.7353L128.958 77.5033C129.33 77.7073 129.786 77.8933 130.326 78.0613C130.878 78.2173 131.55 78.2953 132.342 78.2953ZM138.517 75.7033C138.517 75.0193 138.625 74.3773 138.841 73.7773C139.069 73.1653 139.393 72.6373 139.813 72.1933C140.233 71.7373 140.743 71.3773 141.343 71.1133C141.943 70.8493 142.627 70.7173 143.395 70.7173C143.899 70.7173 144.361 70.7653 144.781 70.8613C145.201 70.9453 145.609 71.0713 146.005 71.2393L145.447 73.3813C145.195 73.2853 144.919 73.2013 144.619 73.1293C144.319 73.0573 143.983 73.0213 143.611 73.0213C142.819 73.0213 142.225 73.2673 141.829 73.7593C141.445 74.2513 141.253 74.8993 141.253 75.7033C141.253 76.5553 141.433 77.2153 141.793 77.6833C142.165 78.1513 142.807 78.3853 143.719 78.3853C144.043 78.3853 144.391 78.3553 144.763 78.2953C145.135 78.2353 145.477 78.1393 145.789 78.0073L146.167 80.2033C145.855 80.3353 145.465 80.4493 144.997 80.5453C144.529 80.6413 144.013 80.6893 143.449 80.6893C142.585 80.6893 141.841 80.5633 141.217 80.3113C140.593 80.0473 140.077 79.6933 139.669 79.2493C139.273 78.8053 138.979 78.2833 138.787 77.6833C138.607 77.0713 138.517 76.4113 138.517 75.7033ZM147.697 80.4373V66.9013L150.379 66.4693V71.0053C150.559 70.9453 150.787 70.8913 151.063 70.8433C151.351 70.7833 151.627 70.7533 151.891 70.7533C152.659 70.7533 153.295 70.8613 153.799 71.0773C154.315 71.2813 154.723 71.5753 155.023 71.9593C155.335 72.3433 155.551 72.7993 155.671 73.3273C155.803 73.8553 155.869 74.4433 155.869 75.0913V80.4373H153.187V75.4153C153.187 74.5513 153.073 73.9393 152.845 73.5793C152.629 73.2193 152.221 73.0393 151.621 73.0393C151.381 73.0393 151.153 73.0633 150.937 73.1113C150.733 73.1473 150.547 73.1893 150.379 73.2373V80.4373H147.697ZM157.576 75.7753C157.576 74.9353 157.702 74.2033 157.954 73.5793C158.218 72.9433 158.56 72.4153 158.98 71.9953C159.4 71.5753 159.88 71.2573 160.42 71.0413C160.972 70.8253 161.536 70.7173 162.112 70.7173C163.456 70.7173 164.518 71.1313 165.298 71.9593C166.078 72.7753 166.468 73.9813 166.468 75.5773C166.468 75.7333 166.462 75.9073 166.45 76.0993C166.438 76.2793 166.426 76.4413 166.414 76.5853H160.33C160.39 77.1373 160.648 77.5753 161.104 77.8993C161.56 78.2233 162.172 78.3853 162.94 78.3853C163.432 78.3853 163.912 78.3433 164.38 78.2593C164.86 78.1633 165.25 78.0493 165.55 77.9173L165.91 80.0953C165.766 80.1673 165.574 80.2393 165.334 80.3113C165.094 80.3833 164.824 80.4433 164.524 80.4913C164.236 80.5513 163.924 80.5993 163.588 80.6353C163.252 80.6713 162.916 80.6893 162.58 80.6893C161.728 80.6893 160.984 80.5633 160.348 80.3113C159.724 80.0593 159.202 79.7173 158.782 79.2853C158.374 78.8413 158.068 78.3193 157.864 77.7193C157.672 77.1193 157.576 76.4713 157.576 75.7753ZM163.876 74.7493C163.864 74.5213 163.822 74.2993 163.75 74.0833C163.69 73.8673 163.588 73.6753 163.444 73.5073C163.312 73.3393 163.138 73.2013 162.922 73.0933C162.718 72.9853 162.46 72.9313 162.148 72.9313C161.848 72.9313 161.59 72.9853 161.374 73.0933C161.158 73.1893 160.978 73.3213 160.834 73.4893C160.69 73.6573 160.576 73.8553 160.492 74.0833C160.42 74.2993 160.366 74.5213 160.33 74.7493H163.876ZM170.554 75.6313C170.554 76.4593 170.74 77.1253 171.112 77.6293C171.484 78.1333 172.036 78.3853 172.768 78.3853C173.008 78.3853 173.23 78.3793 173.434 78.3673C173.638 78.3433 173.806 78.3193 173.938 78.2953V73.4173C173.77 73.3093 173.548 73.2193 173.272 73.1473C173.008 73.0753 172.738 73.0393 172.462 73.0393C171.19 73.0393 170.554 73.9033 170.554 75.6313ZM176.62 80.1313C176.38 80.2033 176.104 80.2753 175.792 80.3473C175.48 80.4073 175.15 80.4613 174.802 80.5093C174.466 80.5573 174.118 80.5933 173.758 80.6173C173.41 80.6533 173.074 80.6713 172.75 80.6713C171.97 80.6713 171.274 80.5573 170.662 80.3293C170.05 80.1013 169.534 79.7773 169.114 79.3573C168.694 78.9253 168.37 78.4093 168.142 77.8093C167.926 77.1973 167.818 76.5133 167.818 75.7573C167.818 74.9893 167.914 74.2993 168.106 73.6873C168.298 73.0633 168.574 72.5353 168.934 72.1033C169.294 71.6713 169.732 71.3413 170.248 71.1133C170.776 70.8853 171.376 70.7713 172.048 70.7713C172.42 70.7713 172.75 70.8073 173.038 70.8793C173.338 70.9513 173.638 71.0533 173.938 71.1853V66.9013L176.62 66.4693V80.1313ZM186.943 80.1133C186.487 80.2453 185.899 80.3653 185.179 80.4733C184.459 80.5933 183.703 80.6533 182.911 80.6533C182.107 80.6533 181.435 80.5453 180.895 80.3293C180.367 80.1133 179.947 79.8133 179.635 79.4293C179.323 79.0333 179.101 78.5653 178.969 78.0253C178.837 77.4853 178.771 76.8913 178.771 76.2433V70.9693H181.453V75.9193C181.453 76.7833 181.567 77.4073 181.795 77.7913C182.023 78.1753 182.449 78.3673 183.073 78.3673C183.265 78.3673 183.469 78.3613 183.685 78.3493C183.901 78.3253 184.093 78.3013 184.261 78.2773V70.9693H186.943V80.1133ZM192.971 80.6173C192.191 80.6053 191.555 80.5213 191.063 80.3653C190.583 80.2093 190.199 79.9933 189.911 79.7173C189.635 79.4293 189.443 79.0873 189.335 78.6913C189.239 78.2833 189.191 77.8273 189.191 77.3233V66.9013L191.873 66.4693V76.7833C191.873 77.0233 191.891 77.2393 191.927 77.4313C191.963 77.6233 192.029 77.7853 192.125 77.9173C192.233 78.0493 192.383 78.1573 192.575 78.2413C192.767 78.3253 193.025 78.3793 193.349 78.4033L192.971 80.6173ZM194.166 75.7753C194.166 74.9353 194.292 74.2033 194.544 73.5793C194.808 72.9433 195.15 72.4153 195.57 71.9953C195.99 71.5753 196.47 71.2573 197.01 71.0413C197.562 70.8253 198.126 70.7173 198.702 70.7173C200.046 70.7173 201.108 71.1313 201.888 71.9593C202.668 72.7753 203.058 73.9813 203.058 75.5773C203.058 75.7333 203.052 75.9073 203.04 76.0993C203.028 76.2793 203.016 76.4413 203.004 76.5853H196.92C196.98 77.1373 197.238 77.5753 197.694 77.8993C198.15 78.2233 198.762 78.3853 199.53 78.3853C200.022 78.3853 200.502 78.3433 200.97 78.2593C201.45 78.1633 201.84 78.0493 202.14 77.9173L202.5 80.0953C202.356 80.1673 202.164 80.2393 201.924 80.3113C201.684 80.3833 201.414 80.4433 201.114 80.4913C200.826 80.5513 200.514 80.5993 200.178 80.6353C199.842 80.6713 199.506 80.6893 199.17 80.6893C198.318 80.6893 197.574 80.5633 196.938 80.3113C196.314 80.0593 195.792 79.7173 195.372 79.2853C194.964 78.8413 194.658 78.3193 194.454 77.7193C194.262 77.1193 194.166 76.4713 194.166 75.7753ZM200.466 74.7493C200.454 74.5213 200.412 74.2993 200.34 74.0833C200.28 73.8673 200.178 73.6753 200.034 73.5073C199.902 73.3393 199.728 73.2013 199.512 73.0933C199.308 72.9853 199.05 72.9313 198.738 72.9313C198.438 72.9313 198.18 72.9853 197.964 73.0933C197.748 73.1893 197.568 73.3213 197.424 73.4893C197.28 73.6573 197.166 73.8553 197.082 74.0833C197.01 74.2993 196.956 74.5213 196.92 74.7493H200.466ZM212.53 78.5653C212.794 78.5653 213.046 78.5593 213.286 78.5473C213.526 78.5353 213.718 78.5173 213.862 78.4933V76.4593C213.754 76.4353 213.592 76.4113 213.376 76.3873C213.16 76.3633 212.962 76.3513 212.782 76.3513C212.53 76.3513 212.29 76.3693 212.062 76.4053C211.846 76.4293 211.654 76.4833 211.486 76.5673C211.318 76.6513 211.186 76.7653 211.09 76.9093C210.994 77.0533 210.946 77.2333 210.946 77.4493C210.946 77.8693 211.084 78.1633 211.36 78.3313C211.648 78.4873 212.038 78.5653 212.53 78.5653ZM212.314 70.7173C213.106 70.7173 213.766 70.8073 214.294 70.9873C214.822 71.1673 215.242 71.4253 215.554 71.7613C215.878 72.0973 216.106 72.5053 216.238 72.9853C216.37 73.4653 216.436 73.9993 216.436 74.5873V80.1673C216.052 80.2513 215.518 80.3473 214.834 80.4553C214.15 80.5753 213.322 80.6353 212.35 80.6353C211.738 80.6353 211.18 80.5813 210.676 80.4733C210.184 80.3653 209.758 80.1913 209.398 79.9513C209.038 79.6993 208.762 79.3753 208.57 78.9793C208.378 78.5833 208.282 78.0973 208.282 77.5213C208.282 76.9693 208.39 76.5013 208.606 76.1173C208.834 75.7333 209.134 75.4273 209.506 75.1993C209.878 74.9713 210.304 74.8093 210.784 74.7133C211.264 74.6053 211.762 74.5513 212.278 74.5513C212.626 74.5513 212.932 74.5693 213.196 74.6053C213.472 74.6293 213.694 74.6653 213.862 74.7133V74.4613C213.862 74.0053 213.724 73.6393 213.448 73.3633C213.172 73.0873 212.692 72.9493 212.008 72.9493C211.552 72.9493 211.102 72.9853 210.658 73.0573C210.214 73.1173 209.83 73.2073 209.506 73.3273L209.164 71.1673C209.32 71.1193 209.512 71.0713 209.74 71.0233C209.98 70.9633 210.238 70.9153 210.514 70.8793C210.79 70.8313 211.078 70.7953 211.378 70.7713C211.69 70.7353 212.002 70.7173 212.314 70.7173ZM222.195 75.7033C222.195 75.0193 222.303 74.3773 222.519 73.7773C222.747 73.1653 223.071 72.6373 223.491 72.1933C223.911 71.7373 224.421 71.3773 225.021 71.1133C225.621 70.8493 226.305 70.7173 227.073 70.7173C227.577 70.7173 228.039 70.7653 228.459 70.8613C228.879 70.9453 229.287 71.0713 229.683 71.2393L229.125 73.3813C228.873 73.2853 228.597 73.2013 228.297 73.1293C227.997 73.0573 227.661 73.0213 227.289 73.0213C226.497 73.0213 225.903 73.2673 225.507 73.7593C225.123 74.2513 224.931 74.8993 224.931 75.7033C224.931 76.5553 225.111 77.2153 225.471 77.6833C225.843 78.1513 226.485 78.3853 227.397 78.3853C227.721 78.3853 228.069 78.3553 228.441 78.2953C228.813 78.2353 229.155 78.1393 229.467 78.0073L229.845 80.2033C229.533 80.3353 229.143 80.4493 228.675 80.5453C228.207 80.6413 227.691 80.6893 227.127 80.6893C226.263 80.6893 225.519 80.5633 224.895 80.3113C224.271 80.0473 223.755 79.6933 223.347 79.2493C222.951 78.8053 222.657 78.2833 222.465 77.6833C222.285 77.0713 222.195 76.4113 222.195 75.7033ZM234.536 78.5653C234.8 78.5653 235.052 78.5593 235.292 78.5473C235.532 78.5353 235.724 78.5173 235.868 78.4933V76.4593C235.76 76.4353 235.598 76.4113 235.382 76.3873C235.166 76.3633 234.968 76.3513 234.788 76.3513C234.536 76.3513 234.296 76.3693 234.068 76.4053C233.852 76.4293 233.66 76.4833 233.492 76.5673C233.324 76.6513 233.192 76.7653 233.096 76.9093C233 77.0533 232.952 77.2333 232.952 77.4493C232.952 77.8693 233.09 78.1633 233.366 78.3313C233.654 78.4873 234.044 78.5653 234.536 78.5653ZM234.32 70.7173C235.112 70.7173 235.772 70.8073 236.3 70.9873C236.828 71.1673 237.248 71.4253 237.56 71.7613C237.884 72.0973 238.112 72.5053 238.244 72.9853C238.376 73.4653 238.442 73.9993 238.442 74.5873V80.1673C238.058 80.2513 237.524 80.3473 236.84 80.4553C236.156 80.5753 235.328 80.6353 234.356 80.6353C233.744 80.6353 233.186 80.5813 232.682 80.4733C232.19 80.3653 231.764 80.1913 231.404 79.9513C231.044 79.6993 230.768 79.3753 230.576 78.9793C230.384 78.5833 230.288 78.0973 230.288 77.5213C230.288 76.9693 230.396 76.5013 230.612 76.1173C230.84 75.7333 231.14 75.4273 231.512 75.1993C231.884 74.9713 232.31 74.8093 232.79 74.7133C233.27 74.6053 233.768 74.5513 234.284 74.5513C234.632 74.5513 234.938 74.5693 235.202 74.6053C235.478 74.6293 235.7 74.6653 235.868 74.7133V74.4613C235.868 74.0053 235.73 73.6393 235.454 73.3633C235.178 73.0873 234.698 72.9493 234.014 72.9493C233.558 72.9493 233.108 72.9853 232.664 73.0573C232.22 73.1173 231.836 73.2073 231.512 73.3273L231.17 71.1673C231.326 71.1193 231.518 71.0713 231.746 71.0233C231.986 70.9633 232.244 70.9153 232.52 70.8793C232.796 70.8313 233.084 70.7953 233.384 70.7713C233.696 70.7353 234.008 70.7173 234.32 70.7173ZM244.378 80.6173C243.598 80.6053 242.962 80.5213 242.47 80.3653C241.99 80.2093 241.606 79.9933 241.318 79.7173C241.042 79.4293 240.85 79.0873 240.742 78.6913C240.646 78.2833 240.598 77.8273 240.598 77.3233V66.9013L243.28 66.4693V76.7833C243.28 77.0233 243.298 77.2393 243.334 77.4313C243.37 77.6233 243.436 77.7853 243.532 77.9173C243.64 78.0493 243.79 78.1573 243.982 78.2413C244.174 78.3253 244.432 78.3793 244.756 78.4033L244.378 80.6173ZM249.803 80.6173C249.023 80.6053 248.387 80.5213 247.895 80.3653C247.415 80.2093 247.031 79.9933 246.743 79.7173C246.467 79.4293 246.275 79.0873 246.167 78.6913C246.071 78.2833 246.023 77.8273 246.023 77.3233V66.9013L248.705 66.4693V76.7833C248.705 77.0233 248.723 77.2393 248.759 77.4313C248.795 77.6233 248.861 77.7853 248.957 77.9173C249.065 78.0493 249.215 78.1573 249.407 78.2413C249.599 78.3253 249.857 78.3793 250.181 78.4033L249.803 80.6173Z" fill="white"/>
</g>
<defs>
<filter id="filter0_d_50_1363" x="0.233887" y="0.0265741" width="352" height="172" filterUnits="userSpaceOnUse" color-interpolation-filters="sRGB">
<feFlood flood-opacity="0" result="BackgroundImageFix"/>
<feColorMatrix in="SourceAlpha" type="matrix" values="0 0 0 0 0 0 0 0 0 0 0 0 0 0 0 0 0 0 127 0" result="hardAlpha"/>
<feOffset dx="-13.7661" dy="10.5893"/>
<feGaussianBlur stdDeviation="23"/>
<feComposite in2="hardAlpha" operator="out"/>
<feColorMatrix type="matrix" values="0 0 0 0 0.278431 0 0 0 0 0.678431 0 0 0 0 0.443137 0 0 0 0.4 0"/>
<feBlend mode="normal" in2="BackgroundImageFix" result="effect1_dropShadow_50_1363"/>
<feBlend mode="normal" in="SourceGraphic" in2="effect1_dropShadow_50_1363" result="shape"/>
</filter>
<linearGradient id="paint0_linear_50_1363" x1="69.7203" y1="101.692" x2="288.687" y2="-85.1429" gradientUnits="userSpaceOnUse">
<stop stop-color="#5A8FAF"/>
<stop offset="0.560784" stop-color="#47AD71"/>
<stop offset="1" stop-color="#33CC33"/>
</linearGradient>
</defs>
</svg>
