<svg width="164" height="186" viewBox="0 0 164 186" fill="none" xmlns="http://www.w3.org/2000/svg">
<g filter="url(#filter0_d_50_1365)">
<circle cx="106.684" cy="82.4999" r="37.0626" fill="white"/>
</g>
<path d="M98.9177 72.4436V92.5562C98.9177 94.0899 100.607 95.0217 101.907 94.187L117.71 84.1306C118.914 83.3735 118.914 81.6263 117.71 80.8497L101.907 70.8128C100.607 69.978 98.9177 70.9099 98.9177 72.4436Z" fill="url(#paint0_linear_50_1365)" fill-opacity="0.890196"/>
<g filter="url(#filter1_d_50_1365)">
<path d="M106.683 35.907C100.564 35.907 94.5054 37.1121 88.8525 39.4537C83.1996 41.7952 78.0632 45.2272 73.7366 49.5538C69.4101 53.8803 65.978 59.0167 63.6365 64.6696C61.295 70.3225 60.0898 76.3813 60.0898 82.5C60.0898 88.6187 61.295 94.6774 63.6365 100.33C65.978 105.983 69.4101 111.12 73.7366 115.446C78.0632 119.773 83.1996 123.205 88.8525 125.546C94.5054 127.888 100.564 129.093 106.683 129.093V118.268C101.986 118.268 97.3347 117.343 92.9951 115.545C88.6556 113.748 84.7126 111.113 81.3912 107.792C78.0699 104.47 75.4353 100.527 73.6378 96.1877C71.8403 91.8482 70.9151 87.1971 70.9151 82.5C70.9151 77.8029 71.8403 73.1518 73.6378 68.8123C75.4353 64.4727 78.0699 60.5297 81.3912 57.2084C84.7126 53.887 88.6556 51.2524 92.9951 49.4549C97.3347 47.6574 101.986 46.7322 106.683 46.7322V35.907Z" fill="url(#paint1_linear_50_1365)" fill-opacity="0.890196" shape-rendering="crispEdges"/>
</g>
<defs>
<filter id="filter0_d_50_1365" x="21.9692" y="22.1408" width="141.897" height="141.897" filterUnits="userSpaceOnUse" color-interpolation-filters="sRGB">
<feFlood flood-opacity="0" result="BackgroundImageFix"/>
<feColorMatrix in="SourceAlpha" type="matrix" values="0 0 0 0 0 0 0 0 0 0 0 0 0 0 0 0 0 0 127 0" result="hardAlpha"/>
<feOffset dx="-13.7661" dy="10.5893"/>
<feGaussianBlur stdDeviation="16.9429"/>
<feComposite in2="hardAlpha" operator="out"/>
<feColorMatrix type="matrix" values="0 0 0 0 0 0 0 0 0 0.317647 0 0 0 0 1 0 0 0 0.3 0"/>
<feBlend mode="normal" in2="BackgroundImageFix" result="effect1_dropShadow_50_1365"/>
<feBlend mode="normal" in="SourceGraphic" in2="effect1_dropShadow_50_1365" result="shape"/>
</filter>
<filter id="filter1_d_50_1365" x="0.32373" y="0.496301" width="138.593" height="185.186" filterUnits="userSpaceOnUse" color-interpolation-filters="sRGB">
<feFlood flood-opacity="0" result="BackgroundImageFix"/>
<feColorMatrix in="SourceAlpha" type="matrix" values="0 0 0 0 0 0 0 0 0 0 0 0 0 0 0 0 0 0 127 0" result="hardAlpha"/>
<feOffset dx="-13.7661" dy="10.5893"/>
<feGaussianBlur stdDeviation="23"/>
<feComposite in2="hardAlpha" operator="out"/>
<feColorMatrix type="matrix" values="0 0 0 0 0.278431 0 0 0 0 0.678431 0 0 0 0 0.443137 0 0 0 0.4 0"/>
<feBlend mode="normal" in2="BackgroundImageFix" result="effect1_dropShadow_50_1365"/>
<feBlend mode="normal" in="SourceGraphic" in2="effect1_dropShadow_50_1365" result="shape"/>
</filter>
<linearGradient id="paint0_linear_50_1365" x1="99.654" y1="90.3765" x2="127.046" y2="84.4752" gradientUnits="userSpaceOnUse">
<stop stop-color="#5A8FAF"/>
<stop offset="0.560784" stop-color="#47AD71"/>
<stop offset="1" stop-color="#33CC33"/>
</linearGradient>
<linearGradient id="paint1_linear_50_1365" x1="63.5737" y1="113.082" x2="190.445" y2="79.7732" gradientUnits="userSpaceOnUse">
<stop stop-color="#5A8FAF"/>
<stop offset="0.560784" stop-color="#47AD71"/>
<stop offset="1" stop-color="#33CC33"/>
</linearGradient>
</defs>
</svg>
