<svg width="21" height="20" viewBox="0 0 21 20" fill="none" xmlns="http://www.w3.org/2000/svg">
<path d="M10.2252 0.5C5.33217 0.499372 1.16105 4.04799 0.377634 8.87793C-0.405782 13.7079 2.42983 18.393 7.07223 19.939C7.57223 20.029 7.75123 19.722 7.75123 19.458C7.75123 19.221 7.74323 18.593 7.74023 17.758C4.96523 18.358 4.37923 16.42 4.37923 16.42C4.19655 15.817 3.80381 15.2993 3.27223 14.961C2.37223 14.342 3.34123 14.356 3.34123 14.356C3.98191 14.4438 4.54579 14.8235 4.86823 15.384C5.14117 15.8803 5.60099 16.247 6.14554 16.4026C6.69009 16.5583 7.27425 16.49 7.76823 16.213C7.81466 15.707 8.03977 15.2341 8.40323 14.879C6.18923 14.628 3.86123 13.772 3.86123 9.949C3.84895 8.9602 4.21613 8.0043 4.88723 7.278C4.58359 6.41731 4.61934 5.47325 4.98723 4.638C4.98723 4.638 5.82423 4.369 7.72923 5.659C9.36308 5.21101 11.0874 5.21101 12.7212 5.659C14.6272 4.368 15.4632 4.638 15.4632 4.638C15.8328 5.47286 15.8686 6.41757 15.5632 7.278C16.2368 8.00423 16.6037 8.96264 16.5872 9.953C16.5872 13.786 14.2572 14.628 12.0352 14.875C12.5146 15.3651 12.7604 16.0373 12.7102 16.721C12.7102 18.055 12.6982 19.131 12.6982 19.458C12.6982 19.725 12.8762 20.035 13.3852 19.937C18.0257 18.3884 20.8583 13.703 20.0732 8.87432C19.2882 4.04565 15.1173 0.498881 10.2252 0.5Z" fill="white"/>
</svg>
