<svg width="18" height="19" viewBox="0 0 18 19" fill="none" xmlns="http://www.w3.org/2000/svg">
<path d="M9.35635 7.85573V11.3067H14.1484C13.7024 13.4997 11.8354 14.7597 9.35635 14.7597C6.4689 14.72 4.14901 12.368 4.14901 9.48024C4.14901 6.59251 6.4689 4.24047 9.35635 4.20073C10.5566 4.1993 11.7198 4.61581 12.6464 5.37873L15.2464 2.77873C12.2639 0.156803 7.90836 -0.180429 4.55791 1.95118C1.20746 4.08279 -0.332625 8.17095 0.7786 11.9834C1.88983 15.7958 5.3853 18.4162 9.35635 18.4137C13.8234 18.4137 17.8854 15.1647 17.8854 9.47974C17.8785 8.93237 17.8114 8.38743 17.6854 7.85473L9.35635 7.85573Z" fill="white"/>
</svg>
