<svg width="19" height="19" viewBox="0 0 19 19" fill="none" xmlns="http://www.w3.org/2000/svg">
<path d="M10.8008 18.5H6.80078V6.5H10.8008V8.5C11.6534 7.41525 12.9464 6.76857 14.3258 6.737C16.8064 6.75077 18.808 8.76938 18.8008 11.25V18.5H14.8008V11.75C14.6408 10.6326 13.6825 9.80358 12.5538 9.806C12.0601 9.82161 11.594 10.0378 11.2632 10.4046C10.9324 10.7715 10.7654 11.2573 10.8008 11.75V18.5ZM4.80078 18.5H0.800781V6.5H4.80078V18.5ZM2.80078 4.5C1.69621 4.5 0.800781 3.60457 0.800781 2.5C0.800781 1.39543 1.69621 0.5 2.80078 0.5C3.90535 0.5 4.80078 1.39543 4.80078 2.5C4.80078 3.03043 4.59007 3.53914 4.21499 3.91421C3.83992 4.28929 3.33121 4.5 2.80078 4.5Z" fill="white"/>
</svg>
