<svg width="21" height="21" viewBox="0 0 21 21" fill="none" xmlns="http://www.w3.org/2000/svg">
<path d="M10.5996 20.5C5.07676 20.5 0.599609 16.0228 0.599609 10.5C0.599609 4.97715 5.07676 0.5 10.5996 0.5C16.1225 0.5 20.5996 4.97715 20.5996 10.5C20.5935 16.0203 16.1199 20.4939 10.5996 20.5ZM5.40661 9.043C4.80823 9.04333 4.27063 9.40876 4.05015 9.96504C3.82967 10.5213 3.97094 11.1558 4.40661 11.566C4.52178 11.6751 4.65424 11.7643 4.79861 11.83C4.78605 11.9761 4.78605 12.1229 4.79861 12.269C4.79861 14.509 7.41361 16.331 10.6276 16.331C13.8416 16.331 16.4576 14.509 16.4576 12.269C16.4693 12.1229 16.4693 11.9761 16.4576 11.83C17.0645 11.5351 17.3856 10.8585 17.2301 10.2019C17.0746 9.54526 16.4843 9.08445 15.8096 9.093H15.7566C15.3984 9.10623 15.0576 9.25115 14.7996 9.5C13.6621 8.72651 12.3249 8.29927 10.9496 8.27L11.5996 5.15L13.7376 5.6C13.7927 6.10706 14.2206 6.49141 14.7306 6.492C14.767 6.49196 14.8034 6.48995 14.8396 6.486C15.3698 6.43278 15.7652 5.97314 15.7385 5.44094C15.7118 4.90873 15.2725 4.491 14.7396 4.491C14.7018 4.49191 14.6641 4.49491 14.6266 4.5C14.3097 4.53367 14.0277 4.71641 13.8676 4.992L11.4196 4.5C11.3979 4.49535 11.3758 4.493 11.3536 4.493C11.2091 4.49472 11.0847 4.59583 11.0536 4.737L10.3056 8.21C8.91343 8.2297 7.55756 8.65698 6.40561 9.439C6.13562 9.18392 5.77804 9.04218 5.40661 9.043ZM10.7796 15.024C10.7236 15.024 10.6666 15.024 10.6106 15.024C10.5546 15.024 10.4976 15.024 10.4416 15.024C9.61169 15.0208 8.80498 14.7497 8.14161 14.251C8.09587 14.1958 8.07406 14.1246 8.08101 14.0533C8.08795 13.982 8.12309 13.9163 8.17861 13.871C8.22698 13.8318 8.28732 13.8102 8.34961 13.81C8.41194 13.81 8.47236 13.8315 8.52061 13.871C9.08121 14.2818 9.75863 14.5022 10.4536 14.5C10.5023 14.5 10.5509 14.5 10.5996 14.5C10.6586 14.5 10.7186 14.5 10.7776 14.5C11.4636 14.5011 12.1325 14.2863 12.6896 13.886C12.7423 13.8322 12.8144 13.802 12.8896 13.802C12.9649 13.802 13.0369 13.8322 13.0896 13.886C13.1981 13.9981 13.1958 14.1767 13.0846 14.286V14.246C12.4209 14.7481 11.6119 15.0208 10.7796 15.023V15.024ZM12.9066 12.58H12.8906L12.8986 12.541C12.4587 12.511 12.099 12.1789 12.0339 11.7429C11.9688 11.3068 12.2158 10.8842 12.6277 10.7269C13.0395 10.5697 13.5054 10.7202 13.7474 11.0887C13.9895 11.4572 13.9425 11.9445 13.6346 12.26C13.4556 12.4554 13.2055 12.5707 12.9406 12.58H12.9056H12.9066ZM8.26961 12.5C7.71732 12.5 7.26961 12.0523 7.26961 11.5C7.26961 10.9477 7.71732 10.5 8.26961 10.5C8.82189 10.5 9.26961 10.9477 9.26961 11.5C9.26961 12.0523 8.82189 12.5 8.26961 12.5Z" fill="white"/>
</svg>
