<svg width="22" height="21" viewBox="0 0 22 21" fill="none" xmlns="http://www.w3.org/2000/svg">
<path d="M13.6411 20.5236C12.4806 20.5198 11.5416 19.5782 11.5411 18.4176V16.3106H13.6411C14.8048 16.3106 15.7481 17.254 15.7481 18.4176C15.7481 19.5813 14.8048 20.5246 13.6411 20.5246V20.5236ZM8.3591 20.5236C7.19856 20.5198 6.25964 19.5782 6.2591 18.4176V13.1436C6.2591 12.3921 6.66002 11.6977 7.31085 11.3219C7.96167 10.9462 8.76352 10.9462 9.41435 11.3219C10.0652 11.6977 10.4661 12.3921 10.4661 13.1436V18.4176C10.4655 19.5809 9.52237 20.5236 8.3591 20.5236ZM18.9091 15.2506H13.6411C12.4777 15.2506 11.5346 14.3075 11.5346 13.1441C11.5346 11.9807 12.4777 11.0376 13.6411 11.0376H18.9091C20.0725 11.0376 21.0156 11.9807 21.0156 13.1441C21.0156 14.3075 20.0725 15.2506 18.9091 15.2506ZM3.0921 15.2506C1.92871 15.2506 0.985596 14.3075 0.985596 13.1441C0.985596 11.9807 1.92871 11.0376 3.0921 11.0376H5.1921V13.1436C5.1921 14.3065 4.24998 15.2495 3.0871 15.2506H3.0921ZM18.9091 9.96162H16.8091V7.85562C16.8124 6.6966 17.7541 5.75941 18.9131 5.76162C20.0721 5.76383 21.0102 6.7046 21.0091 7.86361C21.008 9.02263 20.0681 9.96162 18.9091 9.96162ZM13.6411 9.96162C12.4806 9.95776 11.5416 9.01616 11.5411 7.85562V2.58162C11.5411 1.83011 11.942 1.13569 12.5928 0.759932C13.2437 0.384178 14.0455 0.384178 14.6963 0.759932C15.3472 1.13569 15.7481 1.83011 15.7481 2.58162V7.85562C15.7475 9.01889 14.8044 9.96162 13.6411 9.96162ZM8.3591 9.96162H3.0921C1.92871 9.96162 0.985596 9.0185 0.985596 7.85512C0.985596 6.69173 1.92871 5.74862 3.0921 5.74862H8.3591C9.52248 5.74862 10.4656 6.69173 10.4656 7.85512C10.4656 9.0185 9.52248 9.96162 8.3591 9.96162ZM10.4591 4.68862H8.3591C7.50685 4.69104 6.73715 4.17958 6.40923 3.39294C6.08131 2.6063 6.25982 1.69957 6.86145 1.09594C7.46308 0.492303 8.36922 0.310773 9.15694 0.636072C9.94467 0.961371 10.4587 1.72936 10.4591 2.58162V4.68762V4.68862Z" fill="white"/>
</svg>
