<svg width="209" height="78" viewBox="0 0 209 78" fill="none" xmlns="http://www.w3.org/2000/svg">
<path fill-rule="evenodd" clip-rule="evenodd" d="M33.1726 61.0907C36.5222 56.8074 40.647 55.6397 44.9209 54.032C52.2549 51.2738 50.5443 52.7684 52.7908 45.7881L58.0587 27.8311C58.4057 26.6385 60.0751 22.9827 59.4823 21.921L45.8321 35.6928C45.9445 36.9388 48.5675 40.6457 45.1963 43.9651C42.8274 46.2984 39.2661 46.483 36.8366 44.3148C36.6723 44.1683 36.5188 44.016 36.3735 43.8594C36.2169 43.7141 36.0646 43.5605 35.9181 43.3963C33.7493 40.9662 33.9345 37.4055 36.2681 35.0369C39.5872 31.666 43.2944 34.2887 44.5398 34.4005L58.3112 20.7503C57.2501 20.1581 53.5944 21.8275 52.402 22.1745L34.4445 27.4418C27.4651 29.6886 28.9594 27.9783 26.2005 35.3117C24.5932 39.5858 23.4255 43.7104 19.1419 47.06L33.1726 61.0907ZM81.4054 34.972C82.7485 36.3152 82.7485 38.4928 81.4054 39.8362C80.0619 41.1794 77.8846 41.1794 76.5411 39.8362C75.1976 38.4931 75.1976 36.3155 76.5411 34.972C77.8846 33.6285 80.0619 33.6285 81.4054 34.972ZM4.14582 35.3549C5.09449 36.3033 5.09388 37.8405 4.14521 38.7892C3.19686 39.7375 1.66023 39.7375 0.711573 38.7892C-0.236784 37.8408 -0.237394 36.3033 0.710963 35.3552C1.65932 34.4069 3.19746 34.4069 4.14551 35.3552L4.14582 35.3549ZM47.7742 74.1456C48.6564 75.0275 48.6564 76.4569 47.7748 77.3385C46.8926 78.2205 45.4635 78.2205 44.5812 77.3385C43.6999 76.4572 43.6999 75.0278 44.5818 74.1459C45.4632 73.2642 46.8925 73.2642 47.7739 74.1459L47.7742 74.1456ZM47.1917 1.00358C47.8635 1.67532 47.8641 2.76411 47.1923 3.43554C46.5209 4.10728 45.4315 4.10728 44.7597 3.43554C44.0886 2.76441 44.0886 1.67501 44.7603 1.00358C45.4321 0.331837 46.5209 0.332446 47.1917 1.00358ZM12.9656 67.2225C13.9727 68.2297 15.6053 68.2297 16.6128 67.2225C17.4097 66.4256 17.5764 65.2365 17.1124 64.2763L25.9068 55.4818L24.7516 54.327L15.9724 63.1065C15.0015 62.6056 13.7793 62.7622 12.9656 63.5759C11.9584 64.5831 11.9584 66.2157 12.9656 67.2231V67.2225ZM13.8451 66.343C14.3663 66.8643 15.2123 66.8649 15.7336 66.3436C16.2554 65.8218 16.2548 64.9758 15.7336 64.4545C15.2123 63.9333 14.366 63.9324 13.8442 64.4545C13.3229 64.9758 13.3235 65.8218 13.8448 66.3433L13.8451 66.343ZM11.2702 76.3247C12.2774 77.3318 13.9109 77.3324 14.918 76.3253C15.6924 75.5509 15.8713 74.4075 15.4557 73.4622L21.6095 67.3084L28.5783 65.4413L28.946 65.2314L32.3595 61.8181L31.2043 60.6629L27.9428 63.9244L20.9747 65.7922L20.607 66.0021L14.3578 72.251C13.3753 71.6984 12.1074 71.8403 11.2705 72.6772C10.2634 73.6843 10.2634 75.3169 11.2705 76.3244L11.2702 76.3247ZM12.1497 75.4452C12.6716 75.967 13.517 75.967 14.0385 75.4458C14.5604 74.9239 14.5604 74.0782 14.0385 73.5564C13.5173 73.0351 12.6716 73.0351 12.1497 73.557C11.6285 74.0782 11.6285 74.9239 12.1497 75.4452ZM3.67758 68.7323C4.68474 69.7395 6.31823 69.7401 7.32538 68.733C8.09217 67.9662 8.27496 66.8372 7.87496 65.8973L14.1881 59.5842L14.398 59.2165L16.2655 52.2478L19.527 48.9862L18.3721 47.831L14.9585 51.2446L14.7486 51.6123L12.8815 58.5813L6.78952 64.6736C5.80339 64.1048 4.52174 64.2419 3.67788 65.0857C2.67073 66.0929 2.67073 67.7258 3.67788 68.733L3.67758 68.7323ZM4.55709 67.8528C5.07895 68.3747 5.92434 68.3747 6.44589 67.8534C6.96774 67.3316 6.96774 66.4859 6.44589 65.964C5.92464 65.4428 5.07895 65.4428 4.55709 65.9646C4.03585 66.4859 4.03585 67.3316 4.55709 67.8528ZM39.8921 64.1008C40.3677 64.5764 40.63 65.1842 40.6803 65.8059C40.7586 65.7913 40.8402 65.7858 40.9234 65.7904C44.92 66.0161 48.8709 65.3849 52.53 63.9875C56.1848 62.5938 59.5511 60.4326 62.3858 57.5982C67.8743 52.1101 70.6185 44.9162 70.6185 37.7229C70.6185 30.5297 67.8743 23.3358 62.3858 17.8476C56.8977 12.3595 49.7038 9.61525 42.5105 9.61525C35.3176 9.61525 28.1237 12.3592 22.6353 17.8476C19.8009 20.6821 17.6397 24.049 16.2457 27.7035C14.8638 31.3233 14.2308 35.2282 14.4361 39.18C14.893 39.297 15.3253 39.534 15.6827 39.8914C16.7456 40.9543 16.7453 42.678 15.6827 43.7409C14.6192 44.8044 12.8955 44.8044 11.8326 43.7415C10.7697 42.6786 10.7697 40.9549 11.8332 39.8914C12.0105 39.7141 12.2064 39.5663 12.4145 39.4484L12.4126 39.4222C12.1708 35.1362 12.8483 30.8989 14.345 26.9757C15.8438 23.0479 18.1594 19.437 21.1919 16.4045C27.0788 10.5173 34.7939 7.57414 42.5103 7.57444C50.226 7.57383 57.9417 10.5176 63.8286 16.4045C69.7156 22.2915 72.6593 30.0075 72.6587 37.7229C72.6587 45.4393 69.7156 53.1544 63.8286 59.0413C60.7962 62.0737 57.1852 64.3893 53.2569 65.8876C49.3337 67.3843 45.097 68.0624 40.8103 67.8199C40.5779 67.8071 40.3683 67.717 40.2044 67.5762C40.113 67.7075 40.0088 67.833 39.8915 67.9503C38.828 69.0138 37.1043 69.0138 36.0414 67.9509C34.9779 66.8874 34.9788 65.1643 36.0421 64.1008C37.105 63.0379 38.828 63.0373 39.8915 64.1008H39.8921ZM38.9642 65.0288C39.5144 65.5793 39.5144 66.4716 38.9642 67.0218C38.4131 67.5729 37.5208 67.5726 36.9706 67.0224C36.4204 66.4719 36.4198 65.5793 36.9706 65.0282C37.5208 64.478 38.4137 64.4783 38.9642 65.0288ZM14.7547 40.8196C15.3049 41.3698 15.3049 42.2621 14.7547 42.8126C14.2036 43.3637 13.3116 43.3637 12.7612 42.8132C12.211 42.2627 12.2107 41.3707 12.7618 40.8196C13.3123 40.2695 14.2042 40.2695 14.7547 40.8196Z" fill="url(#paint0_linear_56_1213)" fill-opacity="0.890196"/>
<path fill-rule="evenodd" clip-rule="evenodd" d="M96.3683 38.3226C96.0284 38.4827 95.4488 38.5626 94.6291 38.5626C93.8496 38.5626 93.0601 38.4775 92.2605 38.3077C91.461 38.1379 90.6815 37.9031 89.922 37.6033L89.1722 41.231C89.5319 41.3912 90.1765 41.5911 91.1061 41.8307C92.0353 42.0704 93.1998 42.1904 94.599 42.1904C96.7376 42.1904 98.3917 41.7906 99.561 40.9962C100.73 40.1967 101.315 39.0174 101.315 37.4632C101.315 36.8037 101.24 36.2289 101.09 35.7292C100.941 35.2299 100.68 34.7751 100.311 34.3653C99.9411 33.9603 99.4362 33.5754 98.7967 33.2257C98.1573 32.8709 97.3477 32.5161 96.3683 32.1512C95.8887 31.9714 95.4937 31.8064 95.1839 31.6515C94.874 31.5014 94.6291 31.3617 94.4493 31.2316C94.2695 31.102 94.1499 30.9667 94.0897 30.827C94.0298 30.6869 93.9998 30.5272 93.9998 30.3474C93.9998 29.5679 94.6994 29.1781 96.0986 29.1781C96.8584 29.1781 97.5428 29.248 98.1525 29.3881C98.7618 29.5281 99.327 29.6879 99.8464 29.8677L100.626 26.3897C100.106 26.1898 99.4065 26.0048 98.527 25.835C97.6476 25.6648 96.728 25.5801 95.7687 25.5801C93.8496 25.5801 92.3408 26.01 91.2414 26.8693C90.142 27.7291 89.5925 28.8984 89.5925 30.3775C89.5925 31.1369 89.7025 31.7868 89.9224 32.3262C90.142 32.8657 90.4519 33.3305 90.8516 33.7202C91.2514 34.11 91.7363 34.4448 92.3059 34.7245C92.8755 35.0043 93.5101 35.2744 94.2097 35.5341C95.1092 35.8737 95.7787 36.1788 96.2186 36.4485C96.6581 36.7182 96.8781 37.0333 96.8781 37.393C96.8781 37.853 96.7079 38.1628 96.3683 38.3226ZM112.419 30.6915C113.038 31.5212 113.348 32.6254 113.348 34.0046C113.348 36.8626 112.288 38.2914 110.17 38.2914C109.71 38.2914 109.255 38.2316 108.806 38.1116C108.356 37.992 107.991 37.8419 107.711 37.6621V29.5969C107.931 29.5572 108.211 29.5219 108.551 29.4922C108.891 29.4621 109.26 29.4472 109.66 29.4472C110.88 29.4472 111.799 29.8619 112.419 30.6915ZM117.456 37.2125C117.755 36.2134 117.906 35.104 117.906 33.8846C117.906 32.6254 117.721 31.4863 117.351 30.4667C116.981 29.4476 116.446 28.583 115.747 27.8734C115.047 27.1641 114.188 26.6142 113.168 26.2245C112.149 25.8347 110.99 25.6396 109.69 25.6396C109.151 25.6396 108.586 25.6645 107.996 25.7147C107.407 25.7645 106.827 25.8295 106.258 25.9094C105.688 25.9892 105.143 26.084 104.624 26.194C104.104 26.304 103.644 26.4187 103.244 26.5388V47.3167H107.712V41.3801C108.212 41.6001 108.731 41.7699 109.271 41.8899C109.81 42.0099 110.39 42.0697 111.01 42.0697C112.129 42.0697 113.119 41.8698 113.978 41.47C114.837 41.0703 115.557 40.5107 116.137 39.791C116.716 39.0713 117.156 38.212 117.456 37.2125ZM125.979 38.6525C126.419 38.6525 126.839 38.6425 127.239 38.6224C127.638 38.6023 127.958 38.5726 128.198 38.5325V35.1444C128.018 35.1042 127.749 35.0645 127.389 35.0244C127.029 34.9842 126.699 34.9642 126.399 34.9642C125.979 34.9642 125.585 34.9891 125.215 35.0392C124.845 35.089 124.52 35.1841 124.241 35.3238C123.961 35.4635 123.741 35.6537 123.581 35.8934C123.421 36.1334 123.341 36.4328 123.341 36.7929C123.341 37.4925 123.576 37.977 124.046 38.2471C124.516 38.5169 125.16 38.6517 125.98 38.6517L125.979 38.6525ZM125.62 25.5801C126.939 25.5801 128.039 25.7298 128.918 26.0296C129.797 26.3295 130.502 26.7594 131.032 27.3189C131.562 27.8784 131.936 28.558 132.156 29.358C132.376 30.1575 132.486 31.047 132.486 32.0264V41.321C131.846 41.4607 130.957 41.6256 129.817 41.8159C128.678 42.0057 127.299 42.1005 125.68 42.1005C124.66 42.1005 123.736 42.0105 122.907 41.8307C122.077 41.6509 121.363 41.3559 120.763 40.9461C120.163 40.5362 119.704 40.0016 119.384 39.3421C119.064 38.6826 118.904 37.873 118.904 36.9137C118.904 35.9941 119.089 35.2146 119.459 34.5752C119.828 33.9354 120.323 33.426 120.943 33.0463C121.563 32.6666 122.272 32.3916 123.072 32.2219C123.871 32.0521 124.701 31.967 125.56 31.967C126.14 31.967 126.655 31.9919 127.104 32.042C127.554 32.0918 127.919 32.1568 128.199 32.2367V31.8169C128.199 31.057 127.969 30.4477 127.509 29.9877C127.049 29.5281 126.25 29.2981 125.11 29.2981C124.351 29.2981 123.601 29.3531 122.862 29.4631C122.122 29.5731 121.483 29.728 120.943 29.9279L120.373 26.3299C120.633 26.25 120.958 26.1649 121.348 26.075C121.738 25.9851 122.162 25.9052 122.622 25.8354C123.081 25.7655 123.566 25.7053 124.076 25.6555C124.586 25.6058 125.1 25.5805 125.62 25.5805L125.62 25.5801ZM134.94 30.6617C134.57 31.6712 134.385 32.7453 134.385 33.8848V33.8852C134.385 35.0645 134.54 36.1587 134.85 37.1682C135.16 38.1777 135.649 39.0519 136.319 39.7917C136.989 40.5314 137.843 41.1163 138.882 41.5458C139.922 41.9756 141.162 42.1904 142.601 42.1904C143.54 42.1904 144.4 42.1101 145.179 41.9504C145.959 41.7902 146.608 41.6007 147.128 41.3808L146.498 37.7229C145.978 37.9429 145.409 38.1026 144.789 38.2026C144.17 38.3029 143.59 38.3527 143.05 38.3527C141.531 38.3527 140.467 37.9629 139.857 37.1834C139.247 36.4035 138.943 35.3045 138.943 33.8852C138.943 32.5462 139.267 31.4669 139.917 30.6472C140.567 29.8276 141.551 29.4178 142.87 29.4178C143.49 29.4178 144.05 29.4776 144.549 29.5976C145.049 29.7176 145.509 29.8577 145.928 30.0174L146.858 26.4495C146.198 26.1697 145.519 25.9546 144.819 25.8049C144.119 25.6551 143.35 25.5801 142.51 25.5801C141.231 25.5801 140.091 25.7996 139.092 26.2396C138.093 26.6791 137.243 27.2739 136.544 28.0233C135.844 28.7727 135.309 29.6522 134.94 30.6617ZM147.227 34.0048C147.227 32.6056 147.442 31.3814 147.872 30.3321C148.302 29.2825 148.866 28.4083 149.566 27.7087C150.265 27.009 151.07 26.4792 151.979 26.1195C152.889 25.7599 153.823 25.5801 154.782 25.5801C157.021 25.5801 158.79 26.2648 160.089 27.634C161.389 29.0031 162.038 31.0169 162.038 33.6757C162.038 33.9354 162.028 34.2204 162.008 34.5303C161.988 34.8401 161.968 35.1151 161.948 35.3547H151.814C151.914 36.2743 152.344 37.0036 153.103 37.5435C153.863 38.083 154.882 38.3531 156.162 38.3531C156.981 38.3531 157.786 38.278 158.575 38.1283C159.365 37.9782 160.009 37.7936 160.509 37.5736L161.109 41.2014C160.869 41.3214 160.549 41.4414 160.149 41.561C159.749 41.681 159.304 41.7858 158.815 41.8757C158.325 41.9656 157.8 42.0407 157.241 42.1005C156.681 42.1603 156.121 42.1904 155.562 42.1904C154.143 42.1904 152.908 41.9805 151.859 41.5606C150.81 41.1408 149.94 40.566 149.251 39.8366C148.561 39.1073 148.052 38.2427 147.722 37.2433C147.392 36.2438 147.227 35.1645 147.227 34.0053V34.0048ZM157.721 32.2957C157.701 31.916 157.636 31.5463 157.526 31.1863C157.416 30.8266 157.247 30.5067 157.017 30.227C156.787 29.9472 156.497 29.7172 156.147 29.5374C155.797 29.3576 155.362 29.2676 154.843 29.2676C154.343 29.2676 153.913 29.3523 153.553 29.5225C153.194 29.6923 152.894 29.9171 152.654 30.1973C152.414 30.477 152.229 30.8018 152.099 31.1718C151.969 31.5415 151.874 31.9164 151.815 32.2961H157.721V32.2957ZM173.861 29.8083C174.761 30.7877 175.21 32.1869 175.21 34.0056V34.006C175.21 34.8056 175.13 35.5502 174.97 36.2398C174.81 36.9293 174.55 37.529 174.191 38.0388C173.831 38.5485 173.366 38.9483 172.797 39.2381C172.227 39.5279 171.542 39.6728 170.743 39.6728C169.983 39.6728 169.284 39.5432 168.644 39.2831C168.004 39.023 167.515 38.7532 167.175 38.4735V28.639C167.455 28.5592 167.829 28.4893 168.299 28.4291C168.769 28.3693 169.424 28.3392 170.263 28.3392C171.762 28.3392 172.962 28.8289 173.861 29.8083ZM177.654 37.2737C177.964 36.2743 178.119 35.185 178.119 34.0058C178.119 32.7467 177.934 31.6125 177.564 30.603C177.194 29.5935 176.669 28.739 175.99 28.0394C175.31 27.3397 174.491 26.7999 173.531 26.4202C172.572 26.0404 171.493 25.8506 170.293 25.8506C168.994 25.8506 167.85 25.9457 166.86 26.1356C165.871 26.3254 165.046 26.5004 164.386 26.6602V47.3181H167.175V41.0817C167.515 41.3017 168.029 41.5313 168.719 41.7713C169.409 42.0109 170.203 42.1309 171.103 42.1309C172.222 42.1309 173.217 41.9311 174.086 41.5313C174.955 41.1315 175.69 40.5719 176.29 39.8523C176.889 39.1326 177.344 38.2732 177.654 37.2737ZM179.83 34.0043C179.83 32.6251 180.03 31.421 180.43 30.3914C180.83 29.3618 181.359 28.5077 182.019 27.8281C182.679 27.1486 183.438 26.6388 184.298 26.2988C185.157 25.9592 186.037 25.7891 186.936 25.7891C189.035 25.7891 190.644 26.4437 191.763 27.7531C192.883 29.0624 193.442 31.0561 193.442 33.7346V34.1994C193.442 34.3892 193.432 34.5642 193.412 34.724H182.738C182.858 36.3432 183.328 37.5722 184.148 38.412C184.967 39.2517 186.247 39.6711 187.985 39.6711C188.965 39.6711 189.789 39.586 190.459 39.4162C191.129 39.2464 191.634 39.0815 191.973 38.9217L192.363 41.2602C192.023 41.44 191.428 41.6299 190.579 41.8298C189.73 42.0297 188.765 42.1296 187.686 42.1296C186.327 42.1296 185.152 41.9245 184.163 41.5151C183.173 41.1053 182.359 40.5405 181.719 39.8212C181.08 39.1015 180.605 38.247 180.295 37.2576C179.985 36.2681 179.83 35.1836 179.83 34.0043ZM190.534 32.4754C190.554 31.2163 190.239 30.1815 189.59 29.3723C188.94 28.5627 188.046 28.1581 186.906 28.1581C186.267 28.1581 185.702 28.2829 185.213 28.5326C184.723 28.7822 184.308 29.1073 183.968 29.5071C183.629 29.9069 183.364 30.3665 183.173 30.8863C182.984 31.4061 182.859 31.9359 182.799 32.4754H190.534ZM196.115 26.629C196.115 26.6291 196.115 26.6291 196.115 26.6291L196.115 26.6287V26.629ZM196.115 26.629V41.77H198.904V28.6076C199.004 28.5875 199.169 28.5578 199.399 28.5177C199.628 28.4779 199.888 28.443 200.178 28.4129C200.468 28.3828 200.772 28.3579 201.092 28.3379C201.412 28.3178 201.722 28.3077 202.022 28.3077C202.761 28.3077 203.381 28.4029 203.88 28.5927C204.38 28.7826 204.78 29.0872 205.08 29.5071C205.38 29.9269 205.594 30.4768 205.724 31.1564C205.854 31.8359 205.919 32.6556 205.919 33.6149V41.7703H208.708V33.0156C208.708 31.956 208.608 30.9866 208.408 30.1072C208.208 29.2277 207.863 28.4731 207.373 27.8433C206.883 27.2136 206.229 26.7239 205.409 26.3743C204.59 26.0246 203.56 25.8496 202.321 25.8496C200.942 25.8496 199.722 25.9395 198.663 26.1194C197.604 26.2992 196.755 26.4693 196.115 26.629Z" fill="white"/>
<path d="M98.2113 50.9343V52.3174H94.622V62.3442H93.0249V52.3174H89.4357V50.9343H98.2113Z" fill="white"/>
<path d="M99.8977 62.3442V50.9343H106.862V52.3009H101.495V55.6926H106.269V57.0262H101.495V60.9777H107.274V62.3442H99.8977Z" fill="white"/>
<path d="M113.744 62.5912C112.943 62.5912 112.213 62.4595 111.554 62.1961C110.896 61.9326 110.33 61.5485 109.858 61.0435C109.386 60.5386 109.019 59.9185 108.755 59.1831C108.503 58.4367 108.376 57.586 108.376 56.6311C108.376 55.6761 108.519 54.8309 108.805 54.0955C109.101 53.3491 109.496 52.7235 109.99 52.2186C110.484 51.7137 111.06 51.3295 111.719 51.066C112.377 50.8026 113.08 50.6709 113.826 50.6709C114.298 50.6709 114.721 50.7038 115.094 50.7697C115.478 50.8355 115.807 50.9124 116.082 51.0002C116.367 51.088 116.598 51.1758 116.773 51.2636C116.949 51.3514 117.07 51.4173 117.136 51.4612L116.675 52.7784C116.576 52.7125 116.433 52.6412 116.246 52.5643C116.06 52.4875 115.846 52.4107 115.604 52.3338C115.374 52.257 115.116 52.1966 114.831 52.1527C114.556 52.0978 114.276 52.0704 113.991 52.0704C113.387 52.0704 112.844 52.1747 112.361 52.3832C111.878 52.5918 111.466 52.8936 111.126 53.2888C110.786 53.6839 110.522 54.1669 110.336 54.7376C110.16 55.2974 110.072 55.9286 110.072 56.6311C110.072 57.3116 110.149 57.9318 110.303 58.4915C110.467 59.0513 110.709 59.5343 111.027 59.9404C111.346 60.3356 111.741 60.6429 112.213 60.8624C112.696 61.082 113.255 61.1917 113.892 61.1917C114.627 61.1917 115.237 61.1149 115.72 60.9612C116.203 60.8076 116.565 60.6704 116.806 60.5496L117.218 61.8668C117.141 61.9217 117.004 61.993 116.806 62.0808C116.609 62.1576 116.362 62.2345 116.065 62.3113C115.769 62.3882 115.423 62.454 115.028 62.5089C114.633 62.5638 114.205 62.5912 113.744 62.5912Z" fill="white"/>
<path d="M126.226 50.9343H127.823V62.3442H126.226V57.0756H120.644V62.3442H119.047V50.9343H120.644V55.6926H126.226V50.9343Z" fill="white"/>
<path d="M138.477 62.3442C138.235 61.9381 137.955 61.4826 137.637 60.9777C137.33 60.4728 136.995 59.9514 136.633 59.4136C136.271 58.8647 135.892 58.3104 135.497 57.7506C135.113 57.1909 134.728 56.653 134.344 56.1371C133.96 55.6103 133.587 55.1163 133.225 54.6553C132.862 54.1943 132.528 53.7882 132.22 53.4369V62.3442H130.656V50.9343H131.924C132.44 51.4831 132.989 52.1253 133.57 52.8607C134.163 53.5851 134.745 54.337 135.316 55.1163C135.897 55.8847 136.441 56.642 136.946 57.3884C137.461 58.1348 137.895 58.7989 138.246 59.3806V50.9343H139.81V62.3442H138.477Z" fill="white"/>
<path d="M142.174 56.6311C142.174 55.6542 142.316 54.7925 142.602 54.0461C142.898 53.2997 143.293 52.6796 143.787 52.1856C144.292 51.6807 144.874 51.302 145.532 51.0496C146.202 50.7971 146.91 50.6709 147.656 50.6709C148.392 50.6709 149.083 50.7971 149.731 51.0496C150.39 51.302 150.966 51.6807 151.46 52.1856C151.954 52.6796 152.343 53.2997 152.629 54.0461C152.925 54.7925 153.073 55.6542 153.073 56.6311C153.073 57.608 152.925 58.4696 152.629 59.216C152.343 59.9624 151.954 60.588 151.46 61.0929C150.966 61.5869 150.39 61.9601 149.731 62.2125C149.083 62.465 148.392 62.5912 147.656 62.5912C146.91 62.5912 146.202 62.465 145.532 62.2125C144.874 61.9601 144.292 61.5869 143.787 61.0929C143.293 60.588 142.898 59.9624 142.602 59.216C142.316 58.4696 142.174 57.608 142.174 56.6311ZM143.853 56.6311C143.853 57.3226 143.941 57.9537 144.117 58.5245C144.292 59.0843 144.539 59.5617 144.857 59.9569C145.187 60.352 145.582 60.6594 146.043 60.8789C146.515 61.0875 147.042 61.1917 147.623 61.1917C148.205 61.1917 148.727 61.0875 149.188 60.8789C149.649 60.6594 150.038 60.352 150.357 59.9569C150.686 59.5617 150.938 59.0843 151.114 58.5245C151.29 57.9537 151.377 57.3226 151.377 56.6311C151.377 55.9395 151.29 55.3139 151.114 54.7541C150.938 54.1833 150.686 53.7004 150.357 53.3052C150.038 52.9101 149.649 52.6082 149.188 52.3997C148.727 52.1801 148.205 52.0704 147.623 52.0704C147.042 52.0704 146.515 52.1801 146.043 52.3997C145.582 52.6082 145.187 52.9101 144.857 53.3052C144.539 53.7004 144.292 54.1833 144.117 54.7541C143.941 55.3139 143.853 55.9395 143.853 56.6311Z" fill="white"/>
<path d="M162.315 60.9612V62.3442H155.449V50.9343H157.046V60.9612H162.315Z" fill="white"/>
<path d="M162.787 56.6311C162.787 55.6542 162.929 54.7925 163.215 54.0461C163.511 53.2997 163.906 52.6796 164.4 52.1856C164.905 51.6807 165.487 51.302 166.145 51.0496C166.815 50.7971 167.523 50.6709 168.269 50.6709C169.005 50.6709 169.696 50.7971 170.344 51.0496C171.002 51.302 171.579 51.6807 172.073 52.1856C172.566 52.6796 172.956 53.2997 173.242 54.0461C173.538 54.7925 173.686 55.6542 173.686 56.6311C173.686 57.608 173.538 58.4696 173.242 59.216C172.956 59.9624 172.566 60.588 172.073 61.0929C171.579 61.5869 171.002 61.9601 170.344 62.2125C169.696 62.465 169.005 62.5912 168.269 62.5912C167.523 62.5912 166.815 62.465 166.145 62.2125C165.487 61.9601 164.905 61.5869 164.4 61.0929C163.906 60.588 163.511 59.9624 163.215 59.216C162.929 58.4696 162.787 57.608 162.787 56.6311ZM164.466 56.6311C164.466 57.3226 164.554 57.9537 164.729 58.5245C164.905 59.0843 165.152 59.5617 165.47 59.9569C165.8 60.352 166.195 60.6594 166.656 60.8789C167.128 61.0875 167.655 61.1917 168.236 61.1917C168.818 61.1917 169.339 61.0875 169.8 60.8789C170.261 60.6594 170.651 60.352 170.969 59.9569C171.299 59.5617 171.551 59.0843 171.727 58.5245C171.902 57.9537 171.99 57.3226 171.99 56.6311C171.99 55.9395 171.902 55.3139 171.727 54.7541C171.551 54.1833 171.299 53.7004 170.969 53.3052C170.651 52.9101 170.261 52.6082 169.8 52.3997C169.339 52.1801 168.818 52.0704 168.236 52.0704C167.655 52.0704 167.128 52.1801 166.656 52.3997C166.195 52.6082 165.8 52.9101 165.47 53.3052C165.152 53.7004 164.905 54.1833 164.729 54.7541C164.554 55.3139 164.466 55.9395 164.466 56.6311Z" fill="white"/>
<path d="M183.027 56.7298H184.624V62.0644C184.492 62.1083 184.3 62.1576 184.048 62.2125C183.806 62.2674 183.521 62.3223 183.191 62.3772C182.873 62.4321 182.522 62.476 182.138 62.5089C181.753 62.5528 181.364 62.5748 180.969 62.5748C180.167 62.5748 179.437 62.443 178.779 62.1796C178.12 61.9162 177.555 61.532 177.083 61.0271C176.611 60.5222 176.243 59.902 175.98 59.1666C175.727 58.4312 175.601 57.586 175.601 56.6311C175.601 55.6761 175.744 54.8309 176.029 54.0955C176.326 53.3491 176.721 52.7235 177.215 52.2186C177.709 51.7137 178.285 51.3295 178.944 51.066C179.613 50.8026 180.327 50.6709 181.084 50.6709C181.6 50.6709 182.055 50.7038 182.45 50.7697C182.857 50.8355 183.202 50.9124 183.488 51.0002C183.773 51.088 184.004 51.1758 184.179 51.2636C184.366 51.3514 184.492 51.4173 184.558 51.4612L184.048 52.7948C183.729 52.5863 183.307 52.4161 182.78 52.2844C182.253 52.1417 181.715 52.0704 181.166 52.0704C180.584 52.0704 180.052 52.1747 179.569 52.3832C179.097 52.5918 178.691 52.8936 178.351 53.2888C178.021 53.6839 177.764 54.1669 177.577 54.7376C177.39 55.2974 177.297 55.9286 177.297 56.6311C177.297 57.3116 177.374 57.9318 177.528 58.4915C177.692 59.0513 177.934 59.5343 178.252 59.9404C178.581 60.3356 178.982 60.6429 179.454 60.8624C179.937 61.082 180.502 61.1917 181.15 61.1917C181.611 61.1917 182 61.1698 182.319 61.1259C182.648 61.071 182.884 61.0216 183.027 60.9777V56.7298Z" fill="white"/>
<path d="M187.124 50.9343H188.721V62.3442H187.124V50.9343Z" fill="white"/>
<path d="M191.546 62.3442V50.9343H198.51V52.3009H193.143V55.6926H197.918V57.0262H193.143V60.9777H198.922V62.3442H191.546Z" fill="white"/>
<path d="M203.603 61.2082C205.271 61.2082 206.105 60.6374 206.105 59.4959C206.105 59.1446 206.029 58.8483 205.875 58.6068C205.732 58.3543 205.535 58.1403 205.282 57.9647C205.03 57.7781 204.739 57.6189 204.41 57.4872C204.091 57.3555 203.751 57.2238 203.389 57.0921C202.972 56.9494 202.576 56.7902 202.203 56.6146C201.83 56.428 201.506 56.214 201.232 55.9725C200.957 55.72 200.738 55.4237 200.573 55.0834C200.42 54.7431 200.343 54.3315 200.343 53.8486C200.343 52.8497 200.683 52.0704 201.364 51.5106C202.044 50.9508 202.983 50.6709 204.179 50.6709C204.871 50.6709 205.496 50.7477 206.056 50.9014C206.627 51.0441 207.044 51.2033 207.307 51.3789L206.797 52.6796C206.566 52.5369 206.221 52.3997 205.76 52.268C205.31 52.1253 204.783 52.0539 204.179 52.0539C203.872 52.0539 203.586 52.0868 203.323 52.1527C203.059 52.2186 202.829 52.3174 202.631 52.4491C202.434 52.5808 202.275 52.7509 202.154 52.9595C202.044 53.157 201.989 53.393 201.989 53.6674C201.989 53.9748 202.05 54.2327 202.17 54.4413C202.291 54.6498 202.461 54.8364 202.681 55.0011C202.9 55.1547 203.153 55.2974 203.438 55.4291C203.734 55.5609 204.058 55.6926 204.41 55.8243C204.903 56.0219 205.353 56.2194 205.76 56.417C206.177 56.6146 206.533 56.8506 206.83 57.125C207.137 57.3994 207.373 57.7287 207.538 58.1129C207.702 58.4861 207.785 58.9416 207.785 59.4794C207.785 60.4783 207.417 61.2466 206.682 61.7845C205.957 62.3223 204.931 62.5912 203.603 62.5912C203.153 62.5912 202.736 62.5583 202.351 62.4924C201.978 62.4375 201.643 62.3717 201.347 62.2949C201.051 62.207 200.793 62.1192 200.573 62.0314C200.365 61.9326 200.2 61.8503 200.079 61.7845L200.557 60.4673C200.809 60.61 201.193 60.7691 201.709 60.9448C202.225 61.1204 202.856 61.2082 203.603 61.2082Z" fill="white"/>
<defs>
<linearGradient id="paint0_linear_56_1213" x1="3.08107" y1="64.6841" x2="114.346" y2="33.6208" gradientUnits="userSpaceOnUse">
<stop stop-color="#5A8FAF"/>
<stop offset="0.560784" stop-color="#47AD71"/>
<stop offset="1" stop-color="#33CC33"/>
</linearGradient>
</defs>
</svg>
