<svg width="22" height="18" viewBox="0 0 22 18" fill="none" xmlns="http://www.w3.org/2000/svg">
<path d="M18.995 3.18799C19.8914 2.65208 20.5622 1.80823 20.882 0.813989C20.0397 1.31379 19.118 1.66587 18.157 1.85499C16.8246 0.445516 14.7135 0.102515 13.0034 1.01764C11.2933 1.93277 10.4075 3.87948 10.841 5.76999C7.39062 5.59676 4.17598 3.9669 1.99702 1.28599C0.859855 3.24741 1.44097 5.75477 3.32502 7.01599C2.64373 6.99409 1.97754 6.80963 1.38202 6.47799C1.38202 6.49599 1.38202 6.51399 1.38202 6.53199C1.38241 8.57514 2.82239 10.3351 4.82502 10.74C4.19308 10.9119 3.53022 10.9372 2.88702 10.814C3.45022 12.5613 5.06057 13.7583 6.89602 13.794C5.37585 14.9871 3.49849 15.6342 1.56602 15.631C1.22349 15.6315 0.881226 15.6118 0.541016 15.572C2.50341 16.833 4.78738 17.5023 7.12002 17.5C10.3653 17.5223 13.484 16.2429 15.7787 13.948C18.0734 11.6531 19.3526 8.53424 19.33 5.28899C19.33 5.10299 19.3257 4.91799 19.317 4.73399C20.1575 4.12659 20.8828 3.37414 21.459 2.51199C20.676 2.85905 19.8455 3.08691 18.995 3.18799Z" fill="white"/>
</svg>
