<svg width="176" height="65" viewBox="0 0 176 65" fill="none" xmlns="http://www.w3.org/2000/svg">
<path fill-rule="evenodd" clip-rule="evenodd" d="M28.3871 50.818C31.1964 47.2255 34.656 46.2462 38.2405 44.8978C44.3916 42.5845 42.9569 43.838 44.8411 37.9835L49.2593 22.9229C49.5503 21.9226 50.9505 18.8565 50.4533 17.966L39.0048 29.5165C39.099 30.5616 41.299 33.6706 38.4715 36.4546C36.4847 38.4115 33.4978 38.5664 31.4601 36.7479C31.3224 36.625 31.1936 36.4973 31.0717 36.3659C30.9404 36.2441 30.8127 36.1153 30.6898 35.9776C28.8708 33.9394 29.0262 30.953 30.9833 28.9664C33.7671 26.1392 36.8764 28.3389 37.9209 28.4327L49.4711 16.9841C48.5812 16.4874 45.5151 17.8876 44.515 18.1786L29.4539 22.5963C23.6002 24.4807 24.8534 23.0463 22.5396 29.1969C21.1915 32.7817 20.2122 36.241 16.6195 39.0503L28.3871 50.818ZM68.8404 28.912C69.9669 30.0385 69.9669 31.8649 68.8404 32.9917C67.7136 34.1182 65.8875 34.1182 64.7607 32.9917C63.6339 31.8652 63.6339 30.0388 64.7607 28.912C65.8875 27.7852 67.7136 27.7852 68.8404 28.912ZM4.04208 29.2332C4.83774 30.0286 4.83722 31.3179 4.04157 32.1135C3.24618 32.9089 1.9574 32.9089 1.16174 32.1135C0.366348 31.3181 0.365837 30.0286 1.16123 29.2334C1.95663 28.438 3.24668 28.438 4.04182 29.2334L4.04208 29.2332ZM40.6336 61.7672C41.3736 62.5069 41.3736 63.7058 40.6341 64.4452C39.8942 65.1849 38.6956 65.1849 37.9556 64.4452C37.2165 63.706 37.2165 62.5072 37.9562 61.7675C38.6953 61.0281 39.8942 61.0281 40.6334 61.7675L40.6336 61.7672ZM40.1451 0.422355C40.7085 0.985749 40.709 1.89893 40.1456 2.46207C39.5825 3.02546 38.6688 3.02546 38.1054 2.46207C37.5425 1.89919 37.5425 0.985494 38.1059 0.422355C38.6693 -0.14104 39.5825 -0.140529 40.1451 0.422355ZM11.4393 55.9608C12.284 56.8055 13.6533 56.8055 14.4982 55.9608C15.1666 55.2924 15.3064 54.2952 14.9173 53.4898L22.2933 46.1138L21.3244 45.1452L13.9612 52.5087C13.1468 52.0886 12.1217 52.2199 11.4393 52.9024C10.5946 53.7471 10.5946 55.1164 11.4393 55.9613V55.9608ZM12.1769 55.2232C12.6141 55.6603 13.3237 55.6609 13.7608 55.2237C14.1985 54.786 14.198 54.0765 13.7608 53.6393C13.3237 53.2021 12.6139 53.2013 12.1762 53.6393C11.739 54.0765 11.7395 54.786 12.1767 55.2234L12.1769 55.2232ZM10.0174 63.5949C10.8621 64.4396 12.2321 64.4401 13.0768 63.5954C13.7263 62.9459 13.8763 61.987 13.5278 61.1941L18.6891 56.0329L24.5338 54.4669L24.8422 54.2908L27.7052 51.4281L26.7363 50.4592L24.0008 53.1947L18.1566 54.7612L17.8482 54.9373L12.607 60.1782C11.7829 59.7148 10.7195 59.8338 10.0176 60.5357C9.17293 61.3804 9.17293 62.7497 10.0176 63.5946L10.0174 63.5949ZM10.755 62.8572C11.1927 63.2949 11.9018 63.2949 12.3392 62.8578C12.7769 62.4201 12.7769 61.7108 12.3392 61.2731C11.902 60.8359 11.1927 60.8359 10.755 61.2736C10.3179 61.7108 10.3179 62.4201 10.755 62.8572ZM3.64937 57.2271C4.49407 58.0718 5.8641 58.0723 6.70881 57.2276C7.35192 56.5845 7.50523 55.6376 7.16975 54.8494L12.4646 49.5545L12.6407 49.2461L14.2069 43.4013L16.9424 40.6659L15.9738 39.697L13.1108 42.5599L12.9348 42.8683L11.3688 48.7133L6.25938 53.823C5.4323 53.346 4.35737 53.4609 3.64961 54.1687C2.80491 55.0134 2.80491 56.3829 3.64961 57.2276L3.64937 57.2271ZM4.38702 56.4895C4.8247 56.9272 5.53374 56.9272 5.97117 56.49C6.40885 56.0523 6.40885 55.343 5.97117 54.9053C5.53399 54.4681 4.8247 54.4682 4.38702 54.9058C3.94985 55.343 3.94985 56.0523 4.38702 56.4895ZM34.0229 53.3426C34.4217 53.7415 34.6417 54.2512 34.6839 54.7727C34.7495 54.7605 34.818 54.7558 34.8878 54.7597C38.2398 54.949 41.5534 54.4196 44.6223 53.2476C47.6877 52.0786 50.511 50.2661 52.8885 47.8888C57.4918 43.2859 59.7934 37.2523 59.7934 31.2192C59.7934 25.1862 57.4918 19.1526 52.8885 14.5496C48.2856 9.94667 42.252 7.64505 36.2189 7.64505C30.1861 7.64505 24.1526 9.94641 19.5494 14.5496C17.1721 16.9269 15.3595 19.7508 14.1903 22.8158C13.0314 25.8518 12.5004 29.1269 12.6726 32.4413C13.0559 32.5394 13.4184 32.7382 13.7182 33.0379C14.6096 33.9294 14.6094 35.3751 13.7182 36.2665C12.8262 37.1585 11.3805 37.1585 10.4891 36.267C9.59759 35.3756 9.59759 33.9299 10.4896 33.0379C10.6383 32.8892 10.8026 32.7653 10.9771 32.6664L10.9755 32.6445C10.7727 29.0497 11.3409 25.4959 12.5962 22.2054C13.8533 18.9112 15.7954 15.8826 18.3388 13.3393C23.2762 8.40161 29.7469 5.93315 36.2187 5.9334C42.6899 5.93289 49.1612 8.40186 54.0986 13.3393C59.0361 18.2767 61.505 24.7482 61.5045 31.2192C61.5045 37.691 59.0361 44.1617 54.0986 49.0992C51.5553 51.6425 48.5268 53.5846 45.232 54.8412C41.9416 56.0965 38.3882 56.6653 34.793 56.4619C34.598 56.4511 34.4222 56.3755 34.2848 56.2575C34.2081 56.3676 34.1207 56.4729 34.0224 56.5712C33.1304 57.4632 31.6847 57.4632 30.7932 56.5718C29.9013 55.6798 29.902 54.2346 30.7938 53.3426C31.6852 52.4512 33.1304 52.4507 34.0224 53.3426H34.0229ZM33.2446 54.1209C33.706 54.5826 33.706 55.331 33.2446 55.7925C32.7824 56.2547 32.034 56.2544 31.5725 55.793C31.1111 55.3313 31.1106 54.5826 31.5725 54.1204C32.034 53.659 32.7829 53.6592 33.2446 54.1209ZM12.9399 33.8165C13.4013 34.2779 13.4013 35.0263 12.9399 35.488C12.4777 35.9502 11.7295 35.9502 11.2678 35.4885C10.8064 35.0268 10.8061 34.2787 11.2684 33.8165C11.7301 33.355 12.4782 33.355 12.9399 33.8165Z" fill="url(#paint0_linear_7_1191)" fill-opacity="0.890196"/>
<path fill-rule="evenodd" clip-rule="evenodd" d="M106.225 31.9985C106.594 31.9985 106.946 31.9901 107.281 31.9732C107.616 31.9564 107.885 31.9315 108.086 31.8978V29.0562C107.935 29.0225 107.709 28.9892 107.407 28.9555C107.105 28.9219 106.829 28.905 106.577 28.905C106.225 28.905 105.894 28.9259 105.584 28.968C105.274 29.0097 105.001 29.0895 104.767 29.2067C104.532 29.3238 104.348 29.4834 104.214 29.6844C104.08 29.8857 104.013 30.1368 104.013 30.4388C104.013 31.0256 104.21 31.4319 104.603 31.6585C104.997 31.8847 105.538 31.9978 106.225 31.9978L106.225 31.9985ZM105.923 21.0345C107.03 21.0345 107.952 21.1601 108.69 21.4116C109.427 21.663 110.018 22.0236 110.462 22.4929C110.907 22.9622 111.221 23.5321 111.405 24.2031C111.59 24.8737 111.682 25.6197 111.682 26.4411V34.2366C111.146 34.3537 110.4 34.4921 109.444 34.6516C108.489 34.8109 107.332 34.8903 105.974 34.8903C105.119 34.8903 104.344 34.8149 103.648 34.6641C102.952 34.5133 102.353 34.2658 101.85 33.9221C101.347 33.5784 100.962 33.13 100.693 32.5769C100.425 32.0237 100.291 31.3447 100.291 30.5401C100.291 29.7689 100.446 29.1151 100.756 28.5788C101.066 28.0422 101.481 27.615 102.001 27.2965C102.521 26.978 103.116 26.7474 103.786 26.605C104.457 26.4626 105.153 26.3913 105.874 26.3913C106.36 26.3913 106.791 26.4121 107.169 26.4542C107.546 26.496 107.852 26.5505 108.086 26.6175V26.2654C108.086 25.6281 107.893 25.1171 107.508 24.7313C107.123 24.3458 106.452 24.1529 105.496 24.1529C104.859 24.1529 104.23 24.199 103.61 24.2913C102.99 24.3835 102.454 24.5134 102.001 24.6811L101.523 21.6634C101.741 21.5964 102.014 21.525 102.34 21.4496C102.667 21.3742 103.024 21.3072 103.409 21.2486C103.794 21.19 104.201 21.1395 104.629 21.0978C105.056 21.0561 105.488 21.0348 105.924 21.0348L105.923 21.0345ZM81.3899 31.7218C81.1048 31.8561 80.6187 31.9231 79.9312 31.9231C79.2775 31.9231 78.6153 31.8518 77.9447 31.7093C77.2741 31.5669 76.6203 31.37 75.9833 31.1185L75.3545 34.1612C75.6561 34.2955 76.1968 34.4631 76.9765 34.6641C77.7558 34.8651 78.7324 34.9658 79.906 34.9658C81.6996 34.9658 83.087 34.6305 84.0676 33.9642C85.0483 33.2936 85.5388 32.3045 85.5388 31.001C85.5388 30.4479 85.4762 29.9659 85.3503 29.5467C85.2247 29.1279 85.0066 28.7465 84.6965 28.4028C84.3865 28.0631 83.9629 27.7403 83.4267 27.447C82.8904 27.1494 82.2114 26.8518 81.3899 26.5458C80.9876 26.395 80.6564 26.2566 80.3965 26.1267C80.1366 26.0008 79.9312 25.8836 79.7804 25.7746C79.6296 25.6658 79.5293 25.5524 79.4788 25.4352C79.4286 25.3177 79.4034 25.1837 79.4034 25.0329C79.4034 24.3792 79.9901 24.0523 81.1637 24.0523C81.801 24.0523 82.375 24.1108 82.8863 24.2283C83.3974 24.3458 83.8714 24.4798 84.307 24.6306L84.9608 21.7136C84.5248 21.5459 83.938 21.3907 83.2004 21.2483C82.4628 21.1056 81.6916 21.0345 80.887 21.0345C79.2775 21.0345 78.012 21.3951 77.0899 22.1159C76.1678 22.837 75.707 23.8176 75.707 25.0582C75.707 25.6951 75.7992 26.2401 75.9837 26.6926C76.1678 27.1451 76.4277 27.5349 76.763 27.8618C77.0983 28.1887 77.505 28.4694 77.9827 28.7041C78.4604 28.9387 78.9927 29.1653 79.5794 29.3831C80.3339 29.6679 80.8954 29.9238 81.2644 30.15C81.633 30.3762 81.8175 30.6405 81.8175 30.9421C81.8175 31.3279 81.6747 31.5878 81.3899 31.7218ZM94.8515 25.322C95.3713 26.0178 95.6312 26.9439 95.6312 28.1007C95.6311 30.4977 94.7423 31.6961 92.9656 31.6961C92.5801 31.6961 92.1984 31.6459 91.8213 31.5453C91.4443 31.4449 91.1382 31.319 90.9036 31.1682V24.4039C91.0877 24.3706 91.3227 24.341 91.6075 24.3161C91.8927 24.2908 92.2027 24.2783 92.538 24.2783C93.5608 24.2783 94.3317 24.6261 94.8515 25.322ZM99.0764 30.7912C99.3276 29.9532 99.4535 29.0228 99.4535 28C99.4535 26.9439 99.2983 25.9885 98.9882 25.1334C98.6782 24.2787 98.2298 23.5535 97.643 22.9583C97.0562 22.3635 96.3354 21.9023 95.4804 21.5754C94.6253 21.2485 93.653 21.0849 92.5633 21.0849C92.1108 21.0849 91.6372 21.1058 91.1426 21.1479C90.6481 21.1896 90.162 21.2441 89.6843 21.3111C89.2066 21.3781 88.7494 21.4576 88.3138 21.5498C87.8778 21.6421 87.4923 21.7383 87.157 21.839V39.2656H90.9039V34.2866C91.3231 34.4711 91.759 34.6135 92.2115 34.7141C92.6639 34.8148 93.1501 34.865 93.6699 34.865C94.6088 34.865 95.4386 34.6973 96.1594 34.362C96.8801 34.0267 97.4838 33.5574 97.9699 32.9538C98.456 32.3502 98.825 31.6294 99.0764 30.7912ZM113.74 25.2965C113.43 26.1432 113.275 27.0441 113.275 27.9998V28.0001C113.275 28.9892 113.405 29.9069 113.665 30.7536C113.925 31.6003 114.335 32.3335 114.897 32.9539C115.459 33.5744 116.175 34.0649 117.047 34.4251C117.919 34.7856 118.958 34.9657 120.165 34.9657C120.953 34.9657 121.674 34.8984 122.328 34.7644C122.982 34.6301 123.526 34.4712 123.962 34.2867L123.434 31.2188C122.998 31.4033 122.52 31.5373 122.001 31.6211C121.481 31.7053 120.995 31.747 120.542 31.747C119.268 31.747 118.376 31.4201 117.864 30.7664C117.353 30.1123 117.097 29.1905 117.097 28.0001C117.097 26.8771 117.37 25.9718 117.915 25.2844C118.46 24.5969 119.285 24.2532 120.392 24.2532C120.911 24.2532 121.381 24.3034 121.8 24.404C122.219 24.5047 122.604 24.6222 122.956 24.7562L123.736 21.7637C123.183 21.5291 122.613 21.3486 122.026 21.223C121.439 21.0975 120.793 21.0345 120.09 21.0345C119.017 21.0345 118.061 21.2187 117.223 21.5876C116.384 21.9563 115.672 22.4552 115.085 23.0837C114.498 23.7122 114.05 24.4498 113.74 25.2965ZM124.046 28.1005C124.046 26.9269 124.226 25.9001 124.586 25.0201C124.947 24.1398 125.421 23.4066 126.007 22.8198C126.594 22.233 127.268 21.7886 128.031 21.487C128.794 21.1853 129.578 21.0345 130.382 21.0345C132.26 21.0345 133.744 21.6088 134.833 22.7571C135.923 23.9055 136.468 25.5944 136.468 27.8244C136.468 28.0422 136.459 28.2812 136.443 28.5411C136.426 28.801 136.409 29.0316 136.392 29.2326H127.893C127.977 30.0039 128.337 30.6156 128.974 31.0684C129.611 31.5208 130.466 31.7474 131.539 31.7474C132.227 31.7474 132.901 31.6844 133.563 31.5588C134.226 31.4329 134.766 31.2781 135.185 31.0936L135.688 34.1362C135.487 34.2369 135.219 34.3376 134.883 34.4379C134.548 34.5385 134.175 34.6264 133.764 34.7018C133.354 34.7772 132.914 34.8402 132.444 34.8903C131.975 34.9405 131.506 34.9657 131.036 34.9657C129.846 34.9657 128.811 34.7897 127.931 34.4375C127.051 34.0854 126.321 33.6033 125.743 32.9916C125.165 32.3799 124.737 31.6548 124.46 30.8165C124.184 29.9783 124.046 29.073 124.046 28.1008V28.1005ZM132.847 26.667C132.83 26.3485 132.776 26.0385 132.684 25.7365C132.592 25.4349 132.449 25.1665 132.256 24.9319C132.063 24.6973 131.82 24.5044 131.527 24.3536C131.234 24.2027 130.869 24.1273 130.433 24.1273C130.014 24.1273 129.654 24.1984 129.352 24.3411C129.05 24.4835 128.799 24.672 128.597 24.907C128.396 25.1416 128.241 25.414 128.132 25.7244C128.023 26.0344 127.943 26.3489 127.893 26.6673H132.847V26.667ZM146.384 24.5809C147.138 25.4024 147.515 26.5759 147.515 28.1013V28.1016C147.515 28.7722 147.448 29.3967 147.314 29.9751C147.18 30.5534 146.962 31.0564 146.66 31.4839C146.359 31.9115 145.969 32.2468 145.491 32.4898C145.013 32.7329 144.439 32.8544 143.768 32.8544C143.132 32.8544 142.545 32.7457 142.008 32.5275C141.472 32.3094 141.061 32.0832 140.776 31.8485V23.6003C141.011 23.5333 141.325 23.4747 141.719 23.4242C142.113 23.374 142.662 23.3488 143.366 23.3488C144.624 23.3488 145.629 23.7595 146.384 24.5809ZM149.565 30.8423C149.825 30.0041 149.955 29.0906 149.955 28.1016C149.955 27.0456 149.8 26.0942 149.489 25.2475C149.179 24.4008 148.739 23.6841 148.169 23.0973C147.599 22.5105 146.912 22.0577 146.107 21.7393C145.303 21.4208 144.397 21.2616 143.391 21.2616C142.302 21.2616 141.342 21.3414 140.512 21.5006C139.682 21.6598 138.99 21.8066 138.437 21.9406V39.2666H140.776V34.0361C141.061 34.2205 141.493 34.4131 142.071 34.6144C142.65 34.8154 143.316 34.9161 144.07 34.9161C145.009 34.9161 145.843 34.7484 146.572 34.4131C147.302 34.0778 147.918 33.6085 148.421 33.0049C148.924 32.4013 149.305 31.6805 149.565 30.8423ZM151.39 28.1004C151.39 26.9437 151.558 25.9338 151.893 25.0703C152.229 24.2067 152.673 23.4903 153.226 22.9204C153.779 22.3505 154.416 21.9229 155.137 21.6378C155.858 21.353 156.596 21.2102 157.35 21.2102C159.11 21.2102 160.46 21.7593 161.399 22.8575C162.337 23.9556 162.807 25.6277 162.807 27.8742V28.264C162.807 28.4233 162.798 28.5701 162.781 28.704H153.829C153.93 30.0621 154.324 31.0929 155.011 31.7972C155.699 32.5014 156.772 32.8532 158.23 32.8532C159.051 32.8532 159.743 32.7819 160.305 32.6395C160.866 32.4971 161.29 32.3587 161.575 32.2247L161.901 34.186C161.617 34.3368 161.118 34.4961 160.405 34.6637C159.693 34.8314 158.884 34.9152 157.979 34.9152C156.839 34.9152 155.854 34.7432 155.024 34.3998C154.194 34.0561 153.511 33.5824 152.975 32.9791C152.438 32.3755 152.04 31.6588 151.78 30.829C151.52 29.9991 151.39 29.0895 151.39 28.1004ZM160.368 26.8181C160.385 25.7621 160.12 24.8942 159.576 24.2155C159.031 23.5365 158.28 23.1971 157.325 23.1971C156.788 23.1971 156.315 23.3018 155.904 23.5112C155.494 23.7206 155.146 23.9933 154.861 24.3286C154.576 24.6639 154.354 25.0494 154.194 25.4853C154.035 25.9213 153.93 26.3657 153.88 26.8181H160.368ZM165.049 21.9143C165.048 21.9143 165.048 21.9144 165.048 21.9144L165.049 21.914V21.9143ZM165.049 21.9143V34.6131H167.387V23.5737C167.471 23.5569 167.609 23.532 167.802 23.4983C167.995 23.465 168.213 23.4357 168.456 23.4105C168.699 23.3852 168.955 23.3643 169.223 23.3475C169.491 23.3307 169.751 23.3223 170.002 23.3223C170.622 23.3223 171.142 23.402 171.561 23.5613C171.98 23.7205 172.316 23.976 172.567 24.3282C172.819 24.6803 172.999 25.1415 173.108 25.7114C173.217 26.2814 173.271 26.9688 173.271 27.7734V34.6135H175.61V27.2708C175.61 26.3821 175.526 25.5691 175.358 24.8315C175.191 24.0939 174.902 23.461 174.491 22.9328C174.08 22.4046 173.531 21.9938 172.844 21.7006C172.156 21.4074 171.293 21.2606 170.253 21.2606C169.097 21.2606 168.074 21.336 167.186 21.4868C166.297 21.6376 165.585 21.7804 165.049 21.9143Z" fill="#151515"/>
<path d="M82.9356 42.2999V43.4599H79.9253V51.8695H78.5858V43.4599H75.5754V42.2999H82.9356Z" fill="#151515"/>
<path d="M84.3501 51.8695V42.2999H90.1912V43.4461H85.6895V46.2907H89.6941V47.4092H85.6895V50.7234H90.5365V51.8695H84.3501Z" fill="#151515"/>
<path d="M95.963 52.0767C95.2909 52.0767 94.6787 51.9662 94.1264 51.7452C93.574 51.5243 93.0999 51.2021 92.704 50.7786C92.3082 50.3551 91.9998 49.835 91.7788 49.2182C91.5671 48.5922 91.4612 47.8787 91.4612 47.0778C91.4612 46.2769 91.5809 45.568 91.8203 44.9512C92.0688 44.3252 92.4002 43.8005 92.8145 43.377C93.2288 42.9535 93.7121 42.6313 94.2645 42.4104C94.8168 42.1895 95.406 42.079 96.032 42.079C96.4279 42.079 96.7823 42.1066 97.0953 42.1618C97.4175 42.2171 97.6937 42.2815 97.9238 42.3552C98.1632 42.4288 98.3565 42.5025 98.5038 42.5761C98.6511 42.6497 98.7524 42.705 98.8076 42.7418L98.421 43.8465C98.3381 43.7913 98.2184 43.7315 98.0619 43.667C97.9054 43.6026 97.7259 43.5381 97.5234 43.4737C97.33 43.4092 97.1137 43.3586 96.8743 43.3218C96.6442 43.2758 96.4094 43.2527 96.1701 43.2527C95.6638 43.2527 95.2081 43.3402 94.803 43.5151C94.3979 43.69 94.0527 43.9432 93.7673 44.2746C93.482 44.606 93.261 45.0111 93.1045 45.4898C92.9572 45.9593 92.8836 46.4886 92.8836 47.0778C92.8836 47.6486 92.948 48.1687 93.0769 48.6382C93.215 49.1077 93.4175 49.5128 93.6845 49.8534C93.9515 50.1848 94.2829 50.4426 94.6787 50.6267C95.0838 50.8108 95.5533 50.9029 96.0872 50.9029C96.704 50.9029 97.215 50.8385 97.62 50.7096C98.0251 50.5807 98.3289 50.4656 98.5314 50.3644L98.8766 51.4691C98.8122 51.5151 98.6971 51.5749 98.5314 51.6486C98.3657 51.713 98.1586 51.7775 97.91 51.8419C97.6615 51.9064 97.3715 51.9616 97.0401 52.0076C96.7086 52.0536 96.3496 52.0767 95.963 52.0767Z" fill="#151515"/>
<path d="M106.432 42.2999H107.771V51.8695H106.432V47.4507H101.751V51.8695H100.411V42.2999H101.751V46.2907H106.432V42.2999Z" fill="#151515"/>
<path d="M116.707 51.8695C116.504 51.5289 116.269 51.1469 116.002 50.7234C115.745 50.2999 115.464 49.8626 115.16 49.4115C114.856 48.9512 114.539 48.4863 114.207 48.0168C113.885 47.5473 113.563 47.0962 113.241 46.6636C112.918 46.2217 112.605 45.8074 112.302 45.4207C111.998 45.0341 111.717 44.6935 111.459 44.3989V51.8695H110.147V42.2999H111.211C111.643 42.7602 112.104 43.2988 112.592 43.9156C113.089 44.5232 113.577 45.1538 114.055 45.8074C114.543 46.4518 114.999 47.087 115.422 47.713C115.855 48.339 116.219 48.896 116.513 49.3839V42.2999H117.825V51.8695H116.707Z" fill="#151515"/>
<path d="M119.807 47.0778C119.807 46.2585 119.927 45.5358 120.166 44.9098C120.415 44.2838 120.746 43.7637 121.161 43.3494C121.584 42.9259 122.072 42.6083 122.624 42.3966C123.186 42.1848 123.78 42.079 124.406 42.079C125.023 42.079 125.603 42.1848 126.146 42.3966C126.698 42.6083 127.181 42.9259 127.596 43.3494C128.01 43.7637 128.337 44.2838 128.576 44.9098C128.825 45.5358 128.949 46.2585 128.949 47.0778C128.949 47.8972 128.825 48.6198 128.576 49.2458C128.337 49.8718 128.01 50.3966 127.596 50.82C127.181 51.2343 126.698 51.5473 126.146 51.7591C125.603 51.9708 125.023 52.0767 124.406 52.0767C123.78 52.0767 123.186 51.9708 122.624 51.7591C122.072 51.5473 121.584 51.2343 121.161 50.82C120.746 50.3966 120.415 49.8718 120.166 49.2458C119.927 48.6198 119.807 47.8972 119.807 47.0778ZM121.216 47.0778C121.216 47.6578 121.29 48.1871 121.437 48.6659C121.584 49.1354 121.791 49.5358 122.058 49.8672C122.334 50.1986 122.666 50.4564 123.052 50.6405C123.448 50.8154 123.89 50.9029 124.378 50.9029C124.866 50.9029 125.303 50.8154 125.69 50.6405C126.077 50.4564 126.403 50.1986 126.67 49.8672C126.947 49.5358 127.158 49.1354 127.306 48.6659C127.453 48.1871 127.527 47.6578 127.527 47.0778C127.527 46.4978 127.453 45.9731 127.306 45.5036C127.158 45.0249 126.947 44.6198 126.67 44.2884C126.403 43.957 126.077 43.7038 125.69 43.5289C125.303 43.3448 124.866 43.2527 124.378 43.2527C123.89 43.2527 123.448 43.3448 123.052 43.5289C122.666 43.7038 122.334 43.957 122.058 44.2884C121.791 44.6198 121.584 45.0249 121.437 45.5036C121.29 45.9731 121.216 46.4978 121.216 47.0778Z" fill="#151515"/>
<path d="M136.7 50.7096V51.8695H130.942V42.2999H132.281V50.7096H136.7Z" fill="#151515"/>
<path d="M137.096 47.0778C137.096 46.2585 137.215 45.5358 137.455 44.9098C137.703 44.2838 138.035 43.7637 138.449 43.3494C138.872 42.9259 139.36 42.6083 139.913 42.3966C140.474 42.1848 141.068 42.079 141.694 42.079C142.311 42.079 142.891 42.1848 143.434 42.3966C143.986 42.6083 144.47 42.9259 144.884 43.3494C145.298 43.7637 145.625 44.2838 145.864 44.9098C146.113 45.5358 146.237 46.2585 146.237 47.0778C146.237 47.8972 146.113 48.6198 145.864 49.2458C145.625 49.8718 145.298 50.3966 144.884 50.82C144.47 51.2343 143.986 51.5473 143.434 51.7591C142.891 51.9708 142.311 52.0767 141.694 52.0767C141.068 52.0767 140.474 51.9708 139.913 51.7591C139.36 51.5473 138.872 51.2343 138.449 50.82C138.035 50.3966 137.703 49.8718 137.455 49.2458C137.215 48.6198 137.096 47.8972 137.096 47.0778ZM138.504 47.0778C138.504 47.6578 138.578 48.1871 138.725 48.6659C138.872 49.1354 139.079 49.5358 139.346 49.8672C139.623 50.1986 139.954 50.4564 140.341 50.6405C140.736 50.8154 141.178 50.9029 141.666 50.9029C142.154 50.9029 142.591 50.8154 142.978 50.6405C143.365 50.4564 143.692 50.1986 143.959 49.8672C144.235 49.5358 144.446 49.1354 144.594 48.6659C144.741 48.1871 144.815 47.6578 144.815 47.0778C144.815 46.4978 144.741 45.9731 144.594 45.5036C144.446 45.0249 144.235 44.6198 143.959 44.2884C143.692 43.957 143.365 43.7038 142.978 43.5289C142.591 43.3448 142.154 43.2527 141.666 43.2527C141.178 43.2527 140.736 43.3448 140.341 43.5289C139.954 43.7038 139.623 43.957 139.346 44.2884C139.079 44.6198 138.872 45.0249 138.725 45.5036C138.578 45.9731 138.504 46.4978 138.504 47.0778Z" fill="#151515"/>
<path d="M154.071 47.1607H155.411V51.6348C155.3 51.6716 155.139 51.713 154.927 51.7591C154.725 51.8051 154.485 51.8511 154.209 51.8971C153.942 51.9432 153.648 51.98 153.325 52.0076C153.003 52.0444 152.676 52.0629 152.345 52.0629C151.673 52.0629 151.061 51.9524 150.508 51.7314C149.956 51.5105 149.482 51.1883 149.086 50.7648C148.69 50.3413 148.382 49.8212 148.161 49.2044C147.949 48.5876 147.843 47.8787 147.843 47.0778C147.843 46.2769 147.963 45.568 148.202 44.9512C148.451 44.3252 148.782 43.8005 149.197 43.377C149.611 42.9535 150.094 42.6313 150.647 42.4104C151.208 42.1895 151.806 42.079 152.442 42.079C152.874 42.079 153.256 42.1066 153.588 42.1618C153.928 42.2171 154.218 42.2815 154.458 42.3552C154.697 42.4288 154.89 42.5025 155.038 42.5761C155.194 42.6497 155.3 42.705 155.355 42.7418L154.927 43.8603C154.66 43.6854 154.306 43.5427 153.864 43.4323C153.422 43.3126 152.971 43.2527 152.511 43.2527C152.023 43.2527 151.576 43.3402 151.171 43.5151C150.775 43.69 150.435 43.9432 150.149 44.2746C149.873 44.606 149.657 45.0111 149.5 45.4898C149.344 45.9593 149.266 46.4886 149.266 47.0778C149.266 47.6486 149.33 48.1687 149.459 48.6382C149.597 49.1077 149.8 49.5128 150.067 49.8534C150.343 50.1848 150.679 50.4426 151.075 50.6267C151.48 50.8108 151.954 50.9029 152.497 50.9029C152.884 50.9029 153.21 50.8845 153.477 50.8477C153.754 50.8016 153.951 50.7602 154.071 50.7234V47.1607Z" fill="#151515"/>
<path d="M157.508 42.2999H158.847V51.8695H157.508V42.2999Z" fill="#151515"/>
<path d="M161.216 51.8695V42.2999H167.058V43.4461H162.556V46.2907H166.56V47.4092H162.556V50.7234H167.403V51.8695H161.216Z" fill="#151515"/>
<path d="M171.328 50.9167C172.728 50.9167 173.427 50.438 173.427 49.4806C173.427 49.186 173.363 48.9374 173.234 48.7349C173.114 48.5232 172.949 48.3436 172.737 48.1963C172.525 48.0398 172.281 47.9064 172.005 47.7959C171.738 47.6854 171.453 47.5749 171.149 47.4645C170.799 47.3448 170.468 47.2113 170.155 47.064C169.842 46.9075 169.57 46.728 169.34 46.5255C169.11 46.3137 168.926 46.0652 168.788 45.7798C168.659 45.4944 168.594 45.1492 168.594 44.7441C168.594 43.9064 168.88 43.2527 169.45 42.7832C170.021 42.3137 170.808 42.079 171.812 42.079C172.392 42.079 172.916 42.1434 173.386 42.2723C173.865 42.392 174.215 42.5255 174.435 42.6728L174.007 43.7637C173.814 43.644 173.524 43.5289 173.137 43.4184C172.76 43.2988 172.318 43.2389 171.812 43.2389C171.554 43.2389 171.315 43.2666 171.094 43.3218C170.873 43.377 170.679 43.4599 170.514 43.5703C170.348 43.6808 170.215 43.8235 170.113 43.9984C170.021 44.1641 169.975 44.3621 169.975 44.5922C169.975 44.85 170.026 45.0663 170.127 45.2412C170.228 45.4161 170.371 45.5726 170.555 45.7107C170.739 45.8396 170.951 45.9593 171.19 46.0698C171.439 46.1802 171.711 46.2907 172.005 46.4012C172.419 46.5669 172.797 46.7326 173.137 46.8983C173.487 47.064 173.786 47.2619 174.035 47.4921C174.293 47.7222 174.491 47.9984 174.629 48.3206C174.767 48.6336 174.836 49.0157 174.836 49.4668C174.836 50.3045 174.528 50.9489 173.911 51.4C173.303 51.8511 172.442 52.0767 171.328 52.0767C170.951 52.0767 170.601 52.049 170.279 51.9938C169.966 51.9478 169.685 51.8925 169.437 51.8281C169.188 51.7545 168.972 51.6808 168.788 51.6072C168.613 51.5243 168.475 51.4553 168.373 51.4L168.774 50.2953C168.986 50.415 169.308 50.5485 169.74 50.6958C170.173 50.8431 170.702 50.9167 171.328 50.9167Z" fill="#151515"/>
<defs>
<linearGradient id="paint0_linear_7_1191" x1="3.14906" y1="53.8318" x2="96.4681" y2="27.7788" gradientUnits="userSpaceOnUse">
<stop stop-color="#5A8FAF"/>
<stop offset="0.560784" stop-color="#47AD71"/>
<stop offset="1" stop-color="#33CC33"/>
</linearGradient>
</defs>
</svg>
