<svg width="230" height="111" viewBox="0 0 230 111" fill="none" xmlns="http://www.w3.org/2000/svg">
<g filter="url(#filter0_d_54_1436)">
<rect x="29" y="21.5" width="162" height="42" rx="21" fill="url(#paint0_linear_54_1436)" fill-opacity="0.890196" shape-rendering="crispEdges"/>
<path d="M79.78 38.682C79.72 38.784 79.657 38.859 79.591 38.907C79.525 38.955 79.441 38.979 79.339 38.979C79.231 38.979 79.108 38.931 78.97 38.835C78.832 38.733 78.658 38.622 78.448 38.502C78.244 38.376 77.998 38.265 77.71 38.169C77.422 38.067 77.077 38.016 76.675 38.016C76.297 38.016 75.964 38.067 75.676 38.169C75.394 38.265 75.157 38.4 74.965 38.574C74.773 38.742 74.626 38.943 74.524 39.177C74.428 39.405 74.38 39.654 74.38 39.924C74.38 40.272 74.467 40.56 74.641 40.788C74.821 41.016 75.055 41.211 75.343 41.373C75.631 41.535 75.958 41.676 76.324 41.796C76.69 41.916 77.065 42.042 77.449 42.174C77.833 42.3 78.208 42.447 78.574 42.615C78.94 42.783 79.267 42.996 79.555 43.254C79.843 43.506 80.074 43.818 80.248 44.19C80.428 44.556 80.518 45.006 80.518 45.54C80.518 46.11 80.419 46.644 80.221 47.142C80.029 47.64 79.747 48.075 79.375 48.447C79.003 48.819 78.544 49.113 77.998 49.329C77.458 49.539 76.843 49.644 76.153 49.644C75.739 49.644 75.337 49.602 74.947 49.518C74.557 49.44 74.188 49.329 73.84 49.185C73.492 49.035 73.165 48.858 72.859 48.654C72.559 48.444 72.289 48.21 72.049 47.952L72.598 47.034C72.652 46.962 72.715 46.902 72.787 46.854C72.865 46.806 72.952 46.782 73.048 46.782C73.174 46.782 73.318 46.848 73.48 46.98C73.648 47.112 73.852 47.259 74.092 47.421C74.338 47.577 74.629 47.721 74.965 47.853C75.307 47.985 75.721 48.051 76.207 48.051C76.603 48.051 76.957 48 77.269 47.898C77.581 47.79 77.842 47.64 78.052 47.448C78.268 47.25 78.433 47.013 78.547 46.737C78.661 46.461 78.718 46.155 78.718 45.819C78.718 45.441 78.631 45.132 78.457 44.892C78.283 44.652 78.052 44.451 77.764 44.289C77.476 44.127 77.149 43.989 76.783 43.875C76.417 43.761 76.042 43.644 75.658 43.524C75.274 43.398 74.899 43.254 74.533 43.092C74.167 42.93 73.84 42.72 73.552 42.462C73.264 42.198 73.033 41.871 72.859 41.481C72.685 41.085 72.598 40.599 72.598 40.023C72.598 39.561 72.688 39.114 72.868 38.682C73.048 38.25 73.309 37.869 73.651 37.539C73.999 37.203 74.425 36.936 74.929 36.738C75.433 36.534 76.009 36.432 76.657 36.432C77.383 36.432 78.049 36.549 78.655 36.783C79.267 37.011 79.798 37.341 80.248 37.773L79.78 38.682ZM89.9532 40.356V49.5H88.9002C88.6602 49.5 88.5042 49.383 88.4322 49.149L88.3062 48.231C88.1082 48.441 87.9012 48.633 87.6852 48.807C87.4692 48.981 87.2382 49.131 86.9922 49.257C86.7462 49.377 86.4852 49.47 86.2092 49.536C85.9332 49.608 85.6362 49.644 85.3182 49.644C84.8142 49.644 84.3702 49.56 83.9862 49.392C83.6082 49.224 83.2902 48.99 83.0322 48.69C82.7742 48.384 82.5792 48.018 82.4472 47.592C82.3152 47.166 82.2492 46.695 82.2492 46.179V40.356H84.0132V46.179C84.0132 46.833 84.1632 47.343 84.4632 47.709C84.7632 48.069 85.2222 48.249 85.8402 48.249C86.2902 48.249 86.7102 48.144 87.1002 47.934C87.4902 47.718 87.8562 47.424 88.1982 47.052V40.356H89.9532ZM94.1579 47.25C94.4459 47.628 94.7579 47.892 95.0939 48.042C95.4299 48.192 95.7959 48.267 96.1919 48.267C97.0079 48.267 97.6349 47.976 98.0729 47.394C98.5169 46.812 98.7389 45.933 98.7389 44.757C98.7389 43.671 98.5439 42.876 98.1539 42.372C97.7639 41.862 97.2119 41.607 96.4979 41.607C95.9939 41.607 95.5559 41.721 95.1839 41.949C94.8179 42.177 94.4759 42.501 94.1579 42.921V47.25ZM94.1579 41.616C94.5359 41.196 94.9649 40.857 95.4449 40.599C95.9249 40.341 96.4709 40.212 97.0829 40.212C97.6169 40.212 98.0969 40.317 98.5229 40.527C98.9549 40.731 99.3209 41.028 99.6209 41.418C99.9209 41.802 100.152 42.27 100.314 42.822C100.476 43.374 100.557 43.998 100.557 44.694C100.557 45.432 100.464 46.104 100.278 46.71C100.098 47.316 99.8369 47.835 99.4949 48.267C99.1589 48.699 98.7479 49.035 98.2619 49.275C97.7759 49.509 97.2299 49.626 96.6239 49.626C96.3299 49.626 96.0599 49.596 95.8139 49.536C95.5679 49.482 95.3399 49.401 95.1299 49.293C94.9259 49.185 94.7369 49.053 94.5629 48.897C94.3889 48.741 94.2239 48.564 94.0679 48.366L93.9869 49.131C93.9389 49.377 93.7889 49.5 93.5369 49.5H92.4029V36.216H94.1579V41.616ZM107.901 41.931C107.853 42.009 107.802 42.066 107.748 42.102C107.694 42.132 107.625 42.147 107.541 42.147C107.445 42.147 107.337 42.114 107.217 42.048C107.103 41.982 106.962 41.91 106.794 41.832C106.632 41.754 106.44 41.682 106.218 41.616C105.996 41.55 105.732 41.517 105.426 41.517C105.174 41.517 104.943 41.55 104.733 41.616C104.529 41.676 104.355 41.763 104.211 41.877C104.067 41.985 103.956 42.117 103.878 42.273C103.8 42.423 103.761 42.585 103.761 42.759C103.761 42.987 103.827 43.176 103.959 43.326C104.097 43.476 104.274 43.605 104.49 43.713C104.712 43.821 104.961 43.92 105.237 44.01C105.519 44.094 105.804 44.184 106.092 44.28C106.386 44.376 106.671 44.487 106.947 44.613C107.229 44.733 107.478 44.886 107.694 45.072C107.916 45.252 108.093 45.471 108.225 45.729C108.363 45.987 108.432 46.302 108.432 46.674C108.432 47.1 108.354 47.496 108.198 47.862C108.048 48.222 107.823 48.534 107.523 48.798C107.229 49.062 106.863 49.269 106.425 49.419C105.987 49.569 105.486 49.644 104.922 49.644C104.292 49.644 103.71 49.539 103.176 49.329C102.642 49.119 102.195 48.852 101.835 48.528L102.249 47.853C102.297 47.769 102.357 47.706 102.429 47.664C102.501 47.616 102.597 47.592 102.717 47.592C102.831 47.592 102.948 47.634 103.068 47.718C103.188 47.802 103.332 47.895 103.5 47.997C103.668 48.093 103.872 48.183 104.112 48.267C104.352 48.345 104.652 48.384 105.012 48.384C105.312 48.384 105.573 48.348 105.795 48.276C106.017 48.198 106.2 48.096 106.344 47.97C106.494 47.838 106.605 47.688 106.677 47.52C106.749 47.352 106.785 47.175 106.785 46.989C106.785 46.749 106.716 46.551 106.578 46.395C106.446 46.233 106.269 46.095 106.047 45.981C105.831 45.867 105.582 45.768 105.3 45.684C105.018 45.6 104.73 45.51 104.436 45.414C104.142 45.318 103.854 45.207 103.572 45.081C103.29 44.955 103.038 44.796 102.816 44.604C102.6 44.412 102.423 44.178 102.285 43.902C102.153 43.626 102.087 43.29 102.087 42.894C102.087 42.54 102.159 42.201 102.303 41.877C102.453 41.553 102.666 41.268 102.942 41.022C103.224 40.776 103.569 40.581 103.977 40.437C104.391 40.287 104.862 40.212 105.39 40.212C105.996 40.212 106.542 40.308 107.028 40.5C107.52 40.692 107.94 40.956 108.288 41.292L107.901 41.931ZM116.741 42.066C116.687 42.132 116.633 42.186 116.579 42.228C116.531 42.264 116.459 42.282 116.363 42.282C116.267 42.282 116.165 42.246 116.057 42.174C115.955 42.096 115.823 42.015 115.661 41.931C115.505 41.841 115.313 41.76 115.085 41.688C114.863 41.61 114.587 41.571 114.257 41.571C113.825 41.571 113.444 41.649 113.114 41.805C112.784 41.961 112.508 42.183 112.286 42.471C112.07 42.759 111.905 43.11 111.791 43.524C111.677 43.938 111.62 44.403 111.62 44.919C111.62 45.453 111.68 45.93 111.8 46.35C111.92 46.764 112.091 47.115 112.313 47.403C112.535 47.685 112.805 47.901 113.123 48.051C113.441 48.195 113.795 48.267 114.185 48.267C114.563 48.267 114.875 48.222 115.121 48.132C115.367 48.036 115.571 47.934 115.733 47.826C115.895 47.718 116.03 47.619 116.138 47.529C116.246 47.433 116.357 47.385 116.471 47.385C116.615 47.385 116.726 47.439 116.804 47.547L117.308 48.195C117.098 48.453 116.861 48.672 116.597 48.852C116.339 49.032 116.063 49.179 115.769 49.293C115.475 49.407 115.166 49.491 114.842 49.545C114.524 49.599 114.2 49.626 113.87 49.626C113.3 49.626 112.766 49.521 112.268 49.311C111.776 49.101 111.347 48.795 110.981 48.393C110.621 47.991 110.336 47.499 110.126 46.917C109.916 46.329 109.811 45.663 109.811 44.919C109.811 44.241 109.904 43.614 110.09 43.038C110.282 42.462 110.561 41.967 110.927 41.553C111.299 41.133 111.755 40.806 112.295 40.572C112.835 40.332 113.453 40.212 114.149 40.212C114.803 40.212 115.379 40.317 115.877 40.527C116.375 40.737 116.819 41.034 117.209 41.418L116.741 42.066ZM120.602 42.111C120.896 41.511 121.25 41.04 121.664 40.698C122.078 40.356 122.576 40.185 123.158 40.185C123.356 40.185 123.542 40.209 123.716 40.257C123.896 40.299 124.052 40.365 124.184 40.455L124.067 41.778C124.025 41.94 123.926 42.021 123.77 42.021C123.686 42.021 123.56 42.006 123.392 41.976C123.224 41.94 123.044 41.922 122.852 41.922C122.57 41.922 122.321 41.964 122.105 42.048C121.889 42.126 121.694 42.246 121.52 42.408C121.352 42.564 121.202 42.759 121.07 42.993C120.938 43.221 120.815 43.482 120.701 43.776V49.5H118.946V40.356H119.954C120.146 40.356 120.275 40.392 120.341 40.464C120.413 40.53 120.464 40.65 120.494 40.824L120.602 42.111ZM127.374 40.356V49.5H125.619V40.356H127.374ZM127.707 37.53C127.707 37.692 127.674 37.848 127.608 37.998C127.542 38.142 127.452 38.271 127.338 38.385C127.23 38.493 127.101 38.58 126.951 38.646C126.801 38.706 126.645 38.736 126.483 38.736C126.321 38.736 126.168 38.706 126.024 38.646C125.88 38.58 125.751 38.493 125.637 38.385C125.529 38.271 125.442 38.142 125.376 37.998C125.316 37.848 125.286 37.692 125.286 37.53C125.286 37.362 125.316 37.206 125.376 37.062C125.442 36.912 125.529 36.783 125.637 36.675C125.751 36.561 125.88 36.474 126.024 36.414C126.168 36.348 126.321 36.315 126.483 36.315C126.645 36.315 126.801 36.348 126.951 36.414C127.101 36.474 127.23 36.561 127.338 36.675C127.452 36.783 127.542 36.912 127.608 37.062C127.674 37.206 127.707 37.362 127.707 37.53ZM131.67 47.25C131.958 47.628 132.27 47.892 132.606 48.042C132.942 48.192 133.308 48.267 133.704 48.267C134.52 48.267 135.147 47.976 135.585 47.394C136.029 46.812 136.251 45.933 136.251 44.757C136.251 43.671 136.056 42.876 135.666 42.372C135.276 41.862 134.724 41.607 134.01 41.607C133.506 41.607 133.068 41.721 132.696 41.949C132.33 42.177 131.988 42.501 131.67 42.921V47.25ZM131.67 41.616C132.048 41.196 132.477 40.857 132.957 40.599C133.437 40.341 133.983 40.212 134.595 40.212C135.129 40.212 135.609 40.317 136.035 40.527C136.467 40.731 136.833 41.028 137.133 41.418C137.433 41.802 137.664 42.27 137.826 42.822C137.988 43.374 138.069 43.998 138.069 44.694C138.069 45.432 137.976 46.104 137.79 46.71C137.61 47.316 137.349 47.835 137.007 48.267C136.671 48.699 136.26 49.035 135.774 49.275C135.288 49.509 134.742 49.626 134.136 49.626C133.842 49.626 133.572 49.596 133.326 49.536C133.08 49.482 132.852 49.401 132.642 49.293C132.438 49.185 132.249 49.053 132.075 48.897C131.901 48.741 131.736 48.564 131.58 48.366L131.499 49.131C131.451 49.377 131.301 49.5 131.049 49.5H129.915V36.216H131.67V41.616ZM146.079 43.911C146.079 43.563 146.028 43.242 145.926 42.948C145.83 42.654 145.686 42.399 145.494 42.183C145.302 41.967 145.068 41.799 144.792 41.679C144.516 41.559 144.198 41.499 143.838 41.499C143.1 41.499 142.518 41.712 142.092 42.138C141.672 42.564 141.405 43.155 141.291 43.911H146.079ZM147.528 48.195C147.312 48.447 147.063 48.666 146.781 48.852C146.499 49.032 146.199 49.179 145.881 49.293C145.563 49.407 145.233 49.491 144.891 49.545C144.555 49.599 144.222 49.626 143.892 49.626C143.262 49.626 142.677 49.521 142.137 49.311C141.603 49.095 141.138 48.783 140.742 48.375C140.352 47.961 140.046 47.451 139.824 46.845C139.608 46.233 139.5 45.531 139.5 44.739C139.5 44.103 139.599 43.512 139.797 42.966C139.995 42.414 140.277 41.934 140.643 41.526C141.015 41.118 141.468 40.797 142.002 40.563C142.536 40.329 143.136 40.212 143.802 40.212C144.36 40.212 144.873 40.305 145.341 40.491C145.815 40.671 146.223 40.935 146.565 41.283C146.907 41.631 147.174 42.06 147.366 42.57C147.564 43.08 147.663 43.662 147.663 44.316C147.663 44.586 147.633 44.769 147.573 44.865C147.513 44.955 147.402 45 147.24 45H141.246C141.264 45.546 141.342 46.023 141.48 46.431C141.618 46.833 141.807 47.169 142.047 47.439C142.293 47.709 142.584 47.91 142.92 48.042C143.256 48.174 143.631 48.24 144.045 48.24C144.435 48.24 144.771 48.195 145.053 48.105C145.341 48.015 145.587 47.919 145.791 47.817C146.001 47.709 146.175 47.61 146.313 47.52C146.457 47.43 146.583 47.385 146.691 47.385C146.835 47.385 146.946 47.439 147.024 47.547L147.528 48.195Z" fill="white"/>
</g>
<defs>
<filter id="filter0_d_54_1436" x="0" y="0.5" width="230" height="110" filterUnits="userSpaceOnUse" color-interpolation-filters="sRGB">
<feFlood flood-opacity="0" result="BackgroundImageFix"/>
<feColorMatrix in="SourceAlpha" type="matrix" values="0 0 0 0 0 0 0 0 0 0 0 0 0 0 0 0 0 0 127 0" result="hardAlpha"/>
<feOffset dx="5" dy="13"/>
<feGaussianBlur stdDeviation="17"/>
<feComposite in2="hardAlpha" operator="out"/>
<feColorMatrix type="matrix" values="0 0 0 0 0.278431 0 0 0 0 0.678431 0 0 0 0 0.443137 0 0 0 0.3 0"/>
<feBlend mode="normal" in2="BackgroundImageFix" result="effect1_dropShadow_54_1436"/>
<feBlend mode="normal" in="SourceGraphic" in2="effect1_dropShadow_54_1436" result="shape"/>
</filter>
<linearGradient id="paint0_linear_54_1436" x1="35.0565" y1="56.2837" x2="151.455" y2="-61.5884" gradientUnits="userSpaceOnUse">
<stop stop-color="#5A8FAF"/>
<stop offset="0.560784" stop-color="#47AD71"/>
<stop offset="1" stop-color="#33CC33"/>
</linearGradient>
</defs>
</svg>
