<svg width="98" height="110" viewBox="0 0 98 110" fill="none" xmlns="http://www.w3.org/2000/svg">
<g filter="url(#filter0_d_241_5252)">
<path d="M14 0H84V57C84 76.33 68.33 92 49 92C29.67 92 14 76.33 14 57V0Z" fill="white"/>
<path d="M65.7425 47.7962C65.7425 37.9671 57.8119 29.9999 48.0296 29.9999C45.0259 29.9981 42.0711 30.7643 39.4435 32.2264C36.8159 33.6885 34.6018 35.7984 33.0098 38.3575C35.8248 36.5838 39.0814 35.6455 42.4042 35.651C52.1872 35.651 60.1171 43.619 60.1171 53.4481C60.1224 56.7865 59.1886 60.0584 57.4232 62.8867C59.9704 61.2872 62.0706 59.0627 63.526 56.4228C64.9814 53.7828 65.7442 50.8141 65.7425 47.7962Z" fill="#2C2D31"/>
<path d="M43.4313 56.8486L44.2511 55.3433C44.6878 54.5408 45.3443 53.8809 46.1428 53.4418L47.6418 52.6182L46.1428 51.7945C45.3443 51.3554 44.6878 50.6955 44.2511 49.893L43.4313 48.3885L42.6115 49.8939C42.1747 50.6965 41.5179 51.3565 40.719 51.7953L39.2207 52.619L40.719 53.4426C41.5179 53.8815 42.1747 54.5414 42.6115 55.3441L43.4313 56.8486Z" fill="#2C2D31"/>
<path d="M49.9528 48.2192L50.3695 47.4528C50.5919 47.0441 50.9263 46.7081 51.3331 46.4848L52.095 46.0661L51.3331 45.6466C50.9261 45.4234 50.5916 45.0874 50.3695 44.6785L49.9528 43.9129L49.5361 44.6785C49.314 45.0874 48.9795 45.4234 48.5725 45.6466L47.8105 46.0661L48.5725 46.4848C48.9793 46.7081 49.3137 47.0441 49.5361 47.4528L49.9528 48.2192Z" fill="#2C2D31"/>
<path d="M39.2198 47.1104L39.4221 46.7385C39.5296 46.5405 39.6916 46.3778 39.8886 46.2697L40.2579 46.0673L39.8886 45.864C39.6916 45.7559 39.5296 45.5932 39.4221 45.3953L39.2198 45.0242L39.0175 45.3953C38.9097 45.5931 38.7478 45.7557 38.551 45.864L38.1816 46.0673L38.551 46.2697C38.7478 46.378 38.9097 46.5407 39.0175 46.7385L39.2198 47.1104Z" fill="#2C2D31"/>
</g>
<defs>
<filter id="filter0_d_241_5252" x="0" y="-10" width="98" height="120" filterUnits="userSpaceOnUse" color-interpolation-filters="sRGB">
<feFlood flood-opacity="0" result="BackgroundImageFix"/>
<feColorMatrix in="SourceAlpha" type="matrix" values="0 0 0 0 0 0 0 0 0 0 0 0 0 0 0 0 0 0 127 0" result="hardAlpha"/>
<feOffset dy="4"/>
<feGaussianBlur stdDeviation="7"/>
<feComposite in2="hardAlpha" operator="out"/>
<feColorMatrix type="matrix" values="0 0 0 0 0 0 0 0 0 0.317647 0 0 0 0 1 0 0 0 0.2 0"/>
<feBlend mode="normal" in2="BackgroundImageFix" result="effect1_dropShadow_241_5252"/>
<feBlend mode="normal" in="SourceGraphic" in2="effect1_dropShadow_241_5252" result="shape"/>
</filter>
</defs>
</svg>
